*
*
G04 PADS 9.3.1 Build Number: 456998 generated Gerber (RS-274-X) file*
G04 PC Version=2.1*
*
%IN "SUREARLY_OBJET_V02_2607"*%
*
%MOIN*%
*
%FSLAX35Y35*%
*
*
*
*
G04 PC Standard Apertures*
*
*
G04 Thermal Relief Aperture macro.*
%AMTER*
1,1,$1,0,0*
1,0,$1-$2,0,0*
21,0,$3,$4,0,0,45*
21,0,$3,$4,0,0,135*
%
*
*
G04 Annular Aperture macro.*
%AMANN*
1,1,$1,0,0*
1,0,$2,0,0*
%
*
*
G04 Odd Aperture macro.*
%AMODD*
1,1,$1,0,0*
1,0,$1-0.005,0,0*
%
*
*
G04 PC Custom Aperture Macros*
*
*
*
*
*
*
G04 PC Aperture Table*
*
%ADD091C,0.001*%
%ADD092C,0.01*%
%ADD095C,0.005*%
%ADD096C,0.007*%
%ADD097C,0.015*%
%ADD098C,0.00787*%
%ADD102R,0.08268X0.11811*%
%ADD103C,0.01575*%
%ADD104R,0.0315X0.0315*%
%ADD108R,0.0315X0.0315*%
%ADD113C,0.04724*%
%ADD114R,0.05512X0.01181*%
%ADD115R,0.06299X0.07677*%
%ADD120R,0.04724X0.03937*%
%ADD122O,0.05906X0.01969*%
%ADD125R,0.04016X0.08504*%
%ADD126R,0.04016X0.08858*%
%ADD131C,0.01181*%
%ADD133R,0.07874X0.07874*%
%ADD134C,0.07874*%
%ADD135C,0.08661*%
%ADD136C,0.15748*%
%ADD139C,0.02559*%
%ADD148R,0.01969X0.03937*%
%ADD149R,0.01181X0.03937*%
%ADD150R,0.03543X0.01378*%
%ADD151R,0.03937X0.01181*%
%ADD152R,0.01969X0.01181*%
%ADD159C,0.19685*%
%ADD163C,0.1378*%
%ADD166R,0.0315X0.05118*%
%ADD167C,0.06693*%
%ADD168R,0.06299X0.03346*%
*
*
*
*
G04 PC Circuitry*
G04 Layer Name SUREARLY_OBJET_V02_2607 - circuitry*
%LPD*%
*
*
G04 PC Custom Flashes*
G04 Layer Name SUREARLY_OBJET_V02_2607 - flashes*
%LPD*%
*
*
G04 PC Circuitry*
G04 Layer Name SUREARLY_OBJET_V02_2607 - circuitry*
%LPD*%
*
G54D91*
G54D92*
G01X684816Y63853D02*
X684361Y64478D01*
X683679Y64791*
X682770*
X682088Y64478*
X681634Y63853*
Y63228*
X681861Y62603*
X682088Y62291*
X682543Y61978*
X683907Y61353*
X684361Y61041*
X684588Y60728*
X684816Y60103*
Y59166*
X684361Y58541*
X683679Y58228*
X682770*
X682088Y58541*
X681634Y59166*
X688225Y64791D02*
X687770Y64478D01*
X687316Y63853*
X687088Y63228*
X686861Y62291*
Y60728*
X687088Y59791*
X687316Y59166*
X687770Y58541*
X688225Y58228*
X689134*
X689588Y58541*
X690043Y59166*
X690270Y59791*
X690497Y60728*
Y62291*
X690270Y63228*
X690043Y63853*
X689588Y64478*
X689134Y64791*
X688225*
X692543D02*
Y58228D01*
X695270*
X697316Y64791D02*
Y58228D01*
Y64791D02*
X698907D01*
X699588Y64478*
X700043Y63853*
X700270Y63228*
X700497Y62291*
Y60728*
X700270Y59791*
X700043Y59166*
X699588Y58541*
X698907Y58228*
X697316*
X702543Y64791D02*
Y58228D01*
Y64791D02*
X705497D01*
X702543Y61666D02*
X704361D01*
X702543Y58228D02*
X705497D01*
X707543Y64791D02*
Y58228D01*
Y64791D02*
X709588D01*
X710270Y64478*
X710497Y64166*
X710725Y63541*
Y62916*
X710497Y62291*
X710270Y61978*
X709588Y61666*
X707543*
X709134D02*
X710725Y58228D01*
X712770Y64791D02*
Y58228D01*
Y64791D02*
X714588Y58228D01*
X716407Y64791D02*
X714588Y58228D01*
X716407Y64791D02*
Y58228D01*
X720270Y64791D02*
X718452Y58228D01*
X720270Y64791D02*
X722088Y58228D01*
X719134Y60416D02*
X721407D01*
X727316Y63853D02*
X726861Y64478D01*
X726179Y64791*
X725270*
X724588Y64478*
X724134Y63853*
Y63228*
X724361Y62603*
X724588Y62291*
X725043Y61978*
X726407Y61353*
X726861Y61041*
X727088Y60728*
X727316Y60103*
Y59166*
X726861Y58541*
X726179Y58228*
X725270*
X724588Y58541*
X724134Y59166*
X729361Y64791D02*
Y58228D01*
X732543Y64791D02*
X729361Y60416D01*
X730497Y61978D02*
X732543Y58228D01*
X741407Y66041D02*
X740952Y65416D01*
X740497Y64478*
X740043Y63228*
X739816Y61666*
Y60416*
X740043Y58853*
X740497Y57603*
X740952Y56666*
X741407Y56041*
X743452Y64791D02*
Y58228D01*
Y64791D02*
X745497D01*
X746179Y64478*
X746407Y64166*
X746634Y63541*
Y62916*
X746407Y62291*
X746179Y61978*
X745497Y61666*
X743452D02*
X745497D01*
X746179Y61353*
X746407Y61041*
X746634Y60416*
Y59478*
X746407Y58853*
X746179Y58541*
X745497Y58228*
X743452*
X750043Y64791D02*
X749588Y64478D01*
X749134Y63853*
X748907Y63228*
X748679Y62291*
Y60728*
X748907Y59791*
X749134Y59166*
X749588Y58541*
X750043Y58228*
X750952*
X751407Y58541*
X751861Y59166*
X752088Y59791*
X752316Y60728*
Y62291*
X752088Y63228*
X751861Y63853*
X751407Y64478*
X750952Y64791*
X750043*
X755952D02*
Y58228D01*
X754361Y64791D02*
X757543D01*
X761179D02*
Y58228D01*
X759588Y64791D02*
X762770D01*
X766179D02*
X765725Y64478D01*
X765270Y63853*
X765043Y63228*
X764816Y62291*
Y60728*
X765043Y59791*
X765270Y59166*
X765725Y58541*
X766179Y58228*
X767088*
X767543Y58541*
X767997Y59166*
X768225Y59791*
X768452Y60728*
Y62291*
X768225Y63228*
X767997Y63853*
X767543Y64478*
X767088Y64791*
X766179*
X770497D02*
Y58228D01*
Y64791D02*
X772316Y58228D01*
X774134Y64791D02*
X772316Y58228D01*
X774134Y64791D02*
Y58228D01*
X784588Y63853D02*
X784134Y64478D01*
X783452Y64791*
X782543*
X781861Y64478*
X781407Y63853*
Y63228*
X781634Y62603*
X781861Y62291*
X782316Y61978*
X783679Y61353*
X784134Y61041*
X784361Y60728*
X784588Y60103*
Y59166*
X784134Y58541*
X783452Y58228*
X782543*
X781861Y58541*
X781407Y59166*
X786634Y64791D02*
Y58228D01*
X788679Y64791D02*
Y58228D01*
Y64791D02*
X790270D01*
X790952Y64478*
X791407Y63853*
X791634Y63228*
X791861Y62291*
Y60728*
X791634Y59791*
X791407Y59166*
X790952Y58541*
X790270Y58228*
X788679*
X793907Y64791D02*
Y58228D01*
Y64791D02*
X796861D01*
X793907Y61666D02*
X795725D01*
X793907Y58228D02*
X796861D01*
X798907Y66041D02*
X799361Y65416D01*
X799816Y64478*
X800270Y63228*
X800497Y61666*
Y60416*
X800270Y58853*
X799816Y57603*
X799361Y56666*
X798907Y56041*
G54D95*
X627022Y287447D02*
Y294624D01*
X628780*
X628855Y294648*
X628919Y294695*
X628966Y294759*
X628990Y294834*
Y297380*
X632821*
Y292078*
X632845Y292003*
X632892Y291939*
X632956Y291892*
X633031Y291868*
X635577*
Y287447*
X627022*
X627128D02*
Y294624D01*
X627378Y287447D02*
Y294624D01*
X627628Y287447D02*
Y294624D01*
X627878Y287447D02*
Y294624D01*
X628128Y287447D02*
Y294624D01*
X628378Y287447D02*
Y294624D01*
X628628Y287447D02*
Y294624D01*
X628878Y287447D02*
Y294665D01*
X629128Y287447D02*
Y297380D01*
X629378Y287447D02*
Y297380D01*
X629628Y287447D02*
Y297380D01*
X629878Y287447D02*
Y297380D01*
X630128Y287447D02*
Y297380D01*
X630378Y287447D02*
Y297380D01*
X630628Y287447D02*
Y297380D01*
X630878Y287447D02*
Y297380D01*
X631128Y287447D02*
Y297380D01*
X631378Y287447D02*
Y297380D01*
X631628Y287447D02*
Y297380D01*
X631878Y287447D02*
Y297380D01*
X632128Y287447D02*
Y297380D01*
X632378Y287447D02*
Y297380D01*
X632628Y287447D02*
Y297380D01*
X632878Y287447D02*
Y291958D01*
X633128Y287447D02*
Y291868D01*
X633378Y287447D02*
Y291868D01*
X633628Y287447D02*
Y291868D01*
X633878Y287447D02*
Y291868D01*
X634128Y287447D02*
Y291868D01*
X634378Y287447D02*
Y291868D01*
X634628Y287447D02*
Y291868D01*
X634878Y287447D02*
Y291868D01*
X635128Y287447D02*
Y291868D01*
X635378Y287447D02*
Y291868D01*
X628990Y255754D02*
Y258299D01*
X628966Y258375*
X628919Y258439*
X628855Y258485*
X628780Y258510*
X627022*
Y265687*
X635577*
Y261266*
X633031*
X632956Y261241*
X632892Y261195*
X632845Y261130*
X632821Y261055*
Y255754*
X628990*
X627128Y258510D02*
Y265687D01*
X627378Y258510D02*
Y265687D01*
X627628Y258510D02*
Y265687D01*
X627878Y258510D02*
Y265687D01*
X628128Y258510D02*
Y265687D01*
X628378Y258510D02*
Y265687D01*
X628628Y258510D02*
Y265687D01*
X628878Y258469D02*
Y265687D01*
X629128Y255754D02*
Y265687D01*
X629378Y255754D02*
Y265687D01*
X629628Y255754D02*
Y265687D01*
X629878Y255754D02*
Y265687D01*
X630128Y255754D02*
Y265687D01*
X630378Y255754D02*
Y265687D01*
X630628Y255754D02*
Y265687D01*
X630878Y255754D02*
Y265687D01*
X631128Y255754D02*
Y265687D01*
X631378Y255754D02*
Y265687D01*
X631628Y255754D02*
Y265687D01*
X631878Y255754D02*
Y265687D01*
X632128Y255754D02*
Y265687D01*
X632378Y255754D02*
Y265687D01*
X632628Y255754D02*
Y265687D01*
X632878Y261175D02*
Y265687D01*
X633128Y261266D02*
Y265687D01*
X633378Y261266D02*
Y265687D01*
X633628Y261266D02*
Y265687D01*
X633878Y261266D02*
Y265687D01*
X634128Y261266D02*
Y265687D01*
X634378Y261266D02*
Y265687D01*
X634628Y261266D02*
Y265687D01*
X634878Y261266D02*
Y265687D01*
X635128Y261266D02*
Y265687D01*
X635378Y261266D02*
Y265687D01*
X563636Y294344D02*
Y301522D01*
X565394*
X565469Y301546*
X565533Y301593*
X565580Y301657*
X565604Y301732*
Y304278*
X569435*
Y298976*
X569460Y298901*
X569506Y298837*
X569570Y298790*
X569645Y298766*
X572191*
Y294344*
X563636*
X563742D02*
Y301522D01*
X563992Y294344D02*
Y301522D01*
X564242Y294344D02*
Y301522D01*
X564492Y294344D02*
Y301522D01*
X564742Y294344D02*
Y301522D01*
X564992Y294344D02*
Y301522D01*
X565242Y294344D02*
Y301522D01*
X565492Y294344D02*
Y301563D01*
X565742Y294344D02*
Y304278D01*
X565992Y294344D02*
Y304278D01*
X566242Y294344D02*
Y304278D01*
X566492Y294344D02*
Y304278D01*
X566742Y294344D02*
Y304278D01*
X566992Y294344D02*
Y304278D01*
X567242Y294344D02*
Y304278D01*
X567492Y294344D02*
Y304278D01*
X567742Y294344D02*
Y304278D01*
X567992Y294344D02*
Y304278D01*
X568242Y294344D02*
Y304278D01*
X568492Y294344D02*
Y304278D01*
X568742Y294344D02*
Y304278D01*
X568992Y294344D02*
Y304278D01*
X569242Y294344D02*
Y304278D01*
X569492Y294344D02*
Y298856D01*
X569742Y294344D02*
Y298766D01*
X569992Y294344D02*
Y298766D01*
X570242Y294344D02*
Y298766D01*
X570492Y294344D02*
Y298766D01*
X570742Y294344D02*
Y298766D01*
X570992Y294344D02*
Y298766D01*
X571242Y294344D02*
Y298766D01*
X571492Y294344D02*
Y298766D01*
X571742Y294344D02*
Y298766D01*
X571992Y294344D02*
Y298766D01*
X565604Y250841D02*
Y253386D01*
X565580Y253461*
X565533Y253525*
X565469Y253572*
X565394Y253596*
X563636*
Y260774*
X572191*
Y256352*
X569645*
X569570Y256328*
X569506Y256281*
X569460Y256217*
X569435Y256142*
Y250841*
X565604*
X563742Y253596D02*
Y260774D01*
X563992Y253596D02*
Y260774D01*
X564242Y253596D02*
Y260774D01*
X564492Y253596D02*
Y260774D01*
X564742Y253596D02*
Y260774D01*
X564992Y253596D02*
Y260774D01*
X565242Y253596D02*
Y260774D01*
X565492Y253555D02*
Y260774D01*
X565742Y250841D02*
Y260774D01*
X565992Y250841D02*
Y260774D01*
X566242Y250841D02*
Y260774D01*
X566492Y250841D02*
Y260774D01*
X566742Y250841D02*
Y260774D01*
X566992Y250841D02*
Y260774D01*
X567242Y250841D02*
Y260774D01*
X567492Y250841D02*
Y260774D01*
X567742Y250841D02*
Y260774D01*
X567992Y250841D02*
Y260774D01*
X568242Y250841D02*
Y260774D01*
X568492Y250841D02*
Y260774D01*
X568742Y250841D02*
Y260774D01*
X568992Y250841D02*
Y260774D01*
X569242Y250841D02*
Y260774D01*
X569492Y256262D02*
Y260774D01*
X569742Y256352D02*
Y260774D01*
X569992Y256352D02*
Y260774D01*
X570242Y256352D02*
Y260774D01*
X570492Y256352D02*
Y260774D01*
X570742Y256352D02*
Y260774D01*
X570992Y256352D02*
Y260774D01*
X571242Y256352D02*
Y260774D01*
X571492Y256352D02*
Y260774D01*
X571742Y256352D02*
Y260774D01*
X571992Y256352D02*
Y260774D01*
X889120Y262742D02*
Y255565D01*
X887362*
X887287Y255540*
X887223Y255494*
X887176Y255430*
X887152Y255355*
Y252809*
X883321*
Y258110*
X883296Y258186*
X883250Y258250*
X883186Y258296*
X883110Y258321*
X880565*
Y262742*
X889120*
X880764Y258321D02*
Y262742D01*
X881014Y258321D02*
Y262742D01*
X881264Y258321D02*
Y262742D01*
X881514Y258321D02*
Y262742D01*
X881764Y258321D02*
Y262742D01*
X882014Y258321D02*
Y262742D01*
X882264Y258321D02*
Y262742D01*
X882514Y258321D02*
Y262742D01*
X882764Y258321D02*
Y262742D01*
X883014Y258321D02*
Y262742D01*
X883264Y258231D02*
Y262742D01*
X883514Y252809D02*
Y262742D01*
X883764Y252809D02*
Y262742D01*
X884014Y252809D02*
Y262742D01*
X884264Y252809D02*
Y262742D01*
X884514Y252809D02*
Y262742D01*
X884764Y252809D02*
Y262742D01*
X885014Y252809D02*
Y262742D01*
X885264Y252809D02*
Y262742D01*
X885514Y252809D02*
Y262742D01*
X885764Y252809D02*
Y262742D01*
X886014Y252809D02*
Y262742D01*
X886264Y252809D02*
Y262742D01*
X886514Y252809D02*
Y262742D01*
X886764Y252809D02*
Y262742D01*
X887014Y252809D02*
Y262742D01*
X887264Y255524D02*
Y262742D01*
X887514Y255565D02*
Y262742D01*
X887764Y255565D02*
Y262742D01*
X888014Y255565D02*
Y262742D01*
X888264Y255565D02*
Y262742D01*
X888514Y255565D02*
Y262742D01*
X888764Y255565D02*
Y262742D01*
X889014Y255565D02*
Y262742D01*
X887152Y314120D02*
Y311575D01*
X887176Y311499*
X887223Y311435*
X887287Y311389*
X887362Y311364*
X889120*
Y304187*
X880565*
Y308608*
X883110*
X883186Y308633*
X883250Y308679*
X883296Y308743*
X883321Y308819*
Y314120*
X887152*
X880764Y304187D02*
Y308608D01*
X881014Y304187D02*
Y308608D01*
X881264Y304187D02*
Y308608D01*
X881514Y304187D02*
Y308608D01*
X881764Y304187D02*
Y308608D01*
X882014Y304187D02*
Y308608D01*
X882264Y304187D02*
Y308608D01*
X882514Y304187D02*
Y308608D01*
X882764Y304187D02*
Y308608D01*
X883014Y304187D02*
Y308608D01*
X883264Y304187D02*
Y308698D01*
X883514Y304187D02*
Y314120D01*
X883764Y304187D02*
Y314120D01*
X884014Y304187D02*
Y314120D01*
X884264Y304187D02*
Y314120D01*
X884514Y304187D02*
Y314120D01*
X884764Y304187D02*
Y314120D01*
X885014Y304187D02*
Y314120D01*
X885264Y304187D02*
Y314120D01*
X885514Y304187D02*
Y314120D01*
X885764Y304187D02*
Y314120D01*
X886014Y304187D02*
Y314120D01*
X886264Y304187D02*
Y314120D01*
X886514Y304187D02*
Y314120D01*
X886764Y304187D02*
Y314120D01*
X887014Y304187D02*
Y314120D01*
X887264Y304187D02*
Y311405D01*
X887514Y304187D02*
Y311364D01*
X887764Y304187D02*
Y311364D01*
X888014Y304187D02*
Y311364D01*
X888264Y304187D02*
Y311364D01*
X888514Y304187D02*
Y311364D01*
X888764Y304187D02*
Y311364D01*
X889014Y304187D02*
Y311364D01*
X855656Y493057D02*
Y485880D01*
X853897*
X853822Y485855*
X853758Y485809*
X853711Y485745*
X853687Y485670*
Y483124*
X849856*
Y488425*
X849832Y488501*
X849785Y488565*
X849721Y488611*
X849646Y488636*
X847100*
Y493057*
X855656*
X847299Y488636D02*
Y493057D01*
X847549Y488636D02*
Y493057D01*
X847799Y488636D02*
Y493057D01*
X848049Y488636D02*
Y493057D01*
X848299Y488636D02*
Y493057D01*
X848549Y488636D02*
Y493057D01*
X848799Y488636D02*
Y493057D01*
X849049Y488636D02*
Y493057D01*
X849299Y488636D02*
Y493057D01*
X849549Y488636D02*
Y493057D01*
X849799Y488546D02*
Y493057D01*
X850049Y483124D02*
Y493057D01*
X850299Y483124D02*
Y493057D01*
X850549Y483124D02*
Y493057D01*
X850799Y483124D02*
Y493057D01*
X851049Y483124D02*
Y493057D01*
X851299Y483124D02*
Y493057D01*
X851549Y483124D02*
Y493057D01*
X851799Y483124D02*
Y493057D01*
X852049Y483124D02*
Y493057D01*
X852299Y483124D02*
Y493057D01*
X852549Y483124D02*
Y493057D01*
X852799Y483124D02*
Y493057D01*
X853049Y483124D02*
Y493057D01*
X853299Y483124D02*
Y493057D01*
X853549Y483124D02*
Y493057D01*
X853799Y485839D02*
Y493057D01*
X854049Y485880D02*
Y493057D01*
X854299Y485880D02*
Y493057D01*
X854549Y485880D02*
Y493057D01*
X854799Y485880D02*
Y493057D01*
X855049Y485880D02*
Y493057D01*
X855299Y485880D02*
Y493057D01*
X855549Y485880D02*
Y493057D01*
X853687Y544435D02*
Y541890D01*
X853711Y541814*
X853758Y541750*
X853822Y541704*
X853897Y541679*
X855656*
Y534502*
X847100*
Y538923*
X849646*
X849721Y538948*
X849785Y538994*
X849832Y539058*
X849856Y539134*
Y544435*
X853687*
X847299Y534502D02*
Y538923D01*
X847549Y534502D02*
Y538923D01*
X847799Y534502D02*
Y538923D01*
X848049Y534502D02*
Y538923D01*
X848299Y534502D02*
Y538923D01*
X848549Y534502D02*
Y538923D01*
X848799Y534502D02*
Y538923D01*
X849049Y534502D02*
Y538923D01*
X849299Y534502D02*
Y538923D01*
X849549Y534502D02*
Y538923D01*
X849799Y534502D02*
Y539013D01*
X850049Y534502D02*
Y544435D01*
X850299Y534502D02*
Y544435D01*
X850549Y534502D02*
Y544435D01*
X850799Y534502D02*
Y544435D01*
X851049Y534502D02*
Y544435D01*
X851299Y534502D02*
Y544435D01*
X851549Y534502D02*
Y544435D01*
X851799Y534502D02*
Y544435D01*
X852049Y534502D02*
Y544435D01*
X852299Y534502D02*
Y544435D01*
X852549Y534502D02*
Y544435D01*
X852799Y534502D02*
Y544435D01*
X853049Y534502D02*
Y544435D01*
X853299Y534502D02*
Y544435D01*
X853549Y534502D02*
Y544435D01*
X853799Y534502D02*
Y541720D01*
X854049Y534502D02*
Y541679D01*
X854299Y534502D02*
Y541679D01*
X854549Y534502D02*
Y541679D01*
X854799Y534502D02*
Y541679D01*
X855049Y534502D02*
Y541679D01*
X855299Y534502D02*
Y541679D01*
X855549Y534502D02*
Y541679D01*
G54D96*
X441988Y53437D02*
G75*
G03X449862Y45563I7874J-0D01*
G01X812067*
G03X819941Y53437I-0J7874*
G01Y97728*
Y97733D02*
G03X812062Y104728I-7437J-442D01*
G01X812067D02*
X449862D01*
X449867D02*
G03X441988Y97733I-442J-7437D01*
G01Y97728D02*
Y53437D01*
X445925Y80996D02*
G03X449862Y77059I3937J0D01*
G01X658354*
G03X662291Y80996I0J3937*
G01Y96744*
G03X658354Y100681I-3937J0*
G01X449862*
G03X445925Y96744I0J-3937*
G01Y80996*
Y53437D02*
G03X449862Y49500I3937J-0D01*
G01X658524*
G03X662461Y53437I-0J3937*
G01Y69185*
G03X658524Y73122I-3937J0*
G01X449862*
G03X445925Y69185I0J-3937*
G01Y53437*
X666398D02*
G03X670335Y49500I3937J-0D01*
G01X812067*
G03X816004Y53437I-0J3937*
G01Y69185*
G03X812067Y73122I-3937J0*
G01X670335*
G03X666398Y69185I-0J-3937*
G01Y53437*
Y80996D02*
G03X670335Y77059I3937J0D01*
G01X812067*
G03X816004Y80996I-0J3937*
G01Y96744*
G03X812067Y100681I-3937J0*
G01X670335*
G03X666398Y96744I-0J-3937*
G01Y80996*
X670335Y97401D02*
Y92807D01*
Y97401D02*
X671448D01*
X671926Y97182*
X672244Y96745*
X672403Y96307*
X672562Y95651*
Y94557*
X672403Y93901*
X672244Y93463*
X671926Y93026*
X671448Y92807*
X670335*
X675266Y97401D02*
X673994Y92807D01*
X675266Y97401D02*
X676539Y92807D01*
X674471Y94338D02*
X676062D01*
X679085Y97401D02*
Y92807D01*
X677971Y97401D02*
X680198D01*
X681630D02*
Y92807D01*
Y97401D02*
X683698D01*
X681630Y95213D02*
X682903D01*
X681630Y92807D02*
X683698D01*
X685289Y95870D02*
X685130Y95651D01*
X685289Y95432*
X685448Y95651*
X685289Y95870*
Y93245D02*
X685130Y93026D01*
X685289Y92807*
X685448Y93026*
X685289Y93245*
G54D97*
X505091Y91117D02*
X504554Y91855D01*
X503749Y92224*
X502675*
X501870Y91855*
X501333Y91117*
Y90378*
X501601Y89640*
X501870Y89271*
X502407Y88902*
X504017Y88164*
X504554Y87795*
X504823Y87426*
X505091Y86687*
X505091D02*
Y85580D01*
X504554Y84842*
X503749Y84473*
X502675*
X501870Y84842*
X501333Y85580*
X507507Y92224D02*
Y86687D01*
X507507D02*
X507775Y85580D01*
X508312Y84842*
X509118Y84473*
X509654*
X510460Y84842*
X510997Y85580*
X511265Y86687*
X511265D02*
Y92224D01*
X513681D02*
Y84473D01*
Y92224D02*
X516097D01*
X516902Y91855*
X517171Y91486*
X517439Y90748*
Y90009*
X517171Y89271*
X516902Y88902*
X516097Y88533*
X513681*
X515560D02*
X517439Y84473D01*
X519855Y92224D02*
Y84473D01*
Y92224D02*
X523344D01*
X519855Y88533D02*
X522002D01*
X519855Y84473D02*
X523344D01*
X527908Y92224D02*
X525760Y84473D01*
X527908Y92224D02*
X530055Y84473D01*
X526566Y87057D02*
X529250D01*
X532471Y92224D02*
Y84473D01*
Y92224D02*
X534887D01*
X535692Y91855*
X535961Y91486*
X536229Y90748*
Y90009*
X535961Y89271*
X535692Y88902*
X534887Y88533*
X532471*
X534350D02*
X536229Y84473D01*
X538645Y92224D02*
Y84473D01*
X541866*
X544282Y92224D02*
X546430Y88533D01*
Y84473*
X548577Y92224D02*
X546430Y88533D01*
X550993Y82997D02*
X556630D01*
X559851Y92224D02*
X559314Y91855D01*
X558778Y91117*
X558509Y90378*
X558241Y89271*
Y87426*
X558509Y86318*
X558778Y85580*
X559314Y84842*
X559851Y84473*
X560925*
X561462Y84842*
X561999Y85580*
X562267Y86318*
X562536Y87426*
Y89271*
X562267Y90378*
X561999Y91117*
X561462Y91855*
X560925Y92224*
X559851*
X564952D02*
Y84473D01*
Y92224D02*
X567367D01*
X568173Y91855*
X568441Y91486*
X568710Y90748*
Y90009*
X568441Y89271*
X568173Y88902*
X567367Y88533*
X564952D02*
X567367D01*
X568173Y88164*
X568441Y87795*
X568710Y87057*
Y85949*
X568441Y85211*
X568173Y84842*
X567367Y84473*
X564952*
X573810Y92224D02*
Y86318D01*
X573541Y85211*
X573273Y84842*
X572736Y84473*
X572199*
X571662Y84842*
X571394Y85211*
X571125Y86318*
Y87057*
X576226Y92224D02*
Y84473D01*
Y92224D02*
X579715D01*
X576226Y88533D02*
X578373D01*
X576226Y84473D02*
X579715D01*
X584010Y92224D02*
Y84473D01*
X582131Y92224D02*
X585889D01*
X588305Y82997D02*
X593942D01*
X595553Y92224D02*
X597700Y84473D01*
X599848Y92224D02*
X597700Y84473D01*
X603874Y92224D02*
X603069Y91855D01*
X602532Y90748*
X602264Y88902*
Y87795*
X602532Y85949*
X603069Y84842*
X603874Y84473*
X604411*
X605216Y84842*
X605753Y85949*
X606022Y87795*
Y88902*
X605753Y90748*
X605216Y91855*
X604411Y92224*
X603874*
X608706Y90378D02*
Y90748D01*
X608974Y91486*
X609243Y91855*
X609780Y92224*
X610853*
X611390Y91855*
X611659Y91486*
X611927Y90748*
Y90009*
X611659Y89271*
X611122Y88164*
X608438Y84473*
X612196*
X713804Y91298D02*
Y91767D01*
X714145Y92704*
X714486Y93173*
X715168Y93642*
X716531*
X717213Y93173*
X717554Y92704*
X717895Y91767*
Y90829*
X717554Y89892*
X716872Y88486*
X713463Y83798*
X718236*
X723349Y93642D02*
X722327Y93173D01*
X721645Y91767*
X721304Y89423*
Y88017*
X721645Y85673*
X722327Y84267*
X723349Y83798*
X724031*
X725054Y84267*
X725736Y85673*
X726077Y88017*
Y89423*
X725736Y91767*
X725054Y93173*
X724031Y93642*
X723349*
X729486Y91298D02*
Y91767D01*
X729827Y92704*
X730168Y93173*
X730849Y93642*
X732213*
X732895Y93173*
X733236Y92704*
X733577Y91767*
Y90829*
X733236Y89892*
X732554Y88486*
X729145Y83798*
X733918*
X741077Y92236D02*
X740736Y93173D01*
X739713Y93642*
X739031*
X738009Y93173*
X738009D02*
X737327Y91767D01*
X736986Y89423*
Y87079*
X737327Y85204*
X738009Y84267*
X738009D02*
X739031Y83798D01*
X739372*
X740395Y84267*
X741077Y85204*
X741418Y86611*
Y87079*
X741077Y88486*
X740395Y89423*
X739372Y89892*
X739031*
X738009Y89423*
X738009D02*
X737327Y88486D01*
X736986Y87079*
X744486Y88017D02*
X750622D01*
X755736Y93642D02*
X754713Y93173D01*
X754031Y91767*
X753690Y89423*
Y88017*
X754031Y85673*
X754713Y84267*
X755736Y83798*
X756418*
X757440Y84267*
X758122Y85673*
X758463Y88017*
Y89423*
X758122Y91767*
X757440Y93173*
X756418Y93642*
X755736*
X766304D02*
X762895Y83798D01*
X761531Y93642D02*
X766304D01*
X769372Y88017D02*
X775509D01*
X778577Y91767D02*
X779259Y92236D01*
X779259D02*
X780281Y93642D01*
Y83798*
X785395Y93642D02*
X784372Y93173D01*
X783690Y91767*
X783349Y89423*
Y88017*
X783690Y85673*
X784372Y84267*
X785395Y83798*
X786077*
X787099Y84267*
X787781Y85673*
X788122Y88017*
Y89423*
X787781Y91767*
X787099Y93173*
X786077Y93642*
X785395*
G54D98*
X700231Y350112D02*
G03X696372Y350183I-1993J-3395D01*
G01X675259Y358840D02*
G03X696369Y350182I14111J4341D01*
G01X675261Y358833D02*
G03X672517Y361479I-3763J-1157D01*
G01X564327Y367118D02*
X564590Y367120D01*
X564852Y367123*
X565112*
X565375Y367126*
X565634*
X565897*
X566157Y367128*
X566417*
X566679*
X566939*
X567199*
X567461*
X567721*
X567984Y367126*
X568243*
X568506*
X568768Y367123*
X569031*
X569293*
X569558Y367120*
X569821Y367118*
X570086*
X570351Y367115*
X570616Y367112*
X570884*
X571149Y367110*
X571417Y367107*
X571687Y367105*
X571955Y367102*
X572225*
X572495Y367099*
X572766Y367097*
X573039Y367094*
X573312Y367091*
X573582Y367089*
X573855Y367086*
X574131Y367084*
X574403Y367081*
X574676Y367078*
X574952Y367076*
X575228Y367073*
X575501Y367070*
X575776Y367068*
X576052Y367063*
X576327Y367060*
X576603Y367057*
X576879Y367055*
X577154Y367052*
X577430Y367049*
X577705Y367047*
X577981Y367044*
X578257Y367042*
X578532Y367039*
X578808Y367036*
X579083Y367034*
X579359Y367031*
X579634Y367028*
X579910Y367026*
X580183Y367023*
X580459Y367021*
X580734Y367018*
X581007Y367015*
X581283Y367013*
X581558Y367010*
X581831Y367007*
X582107Y367005*
X582382Y367002*
X582382D02*
X582655Y367000D01*
X582931Y366997*
X583204Y366994*
X583480Y366992*
X583753Y366989*
X584028Y366986*
X584301Y366984*
X584574Y366981*
X584850Y366979*
X585123Y366976*
X585398Y366973*
X585671Y366971*
X585944Y366968*
X586220*
X586493Y366965*
X586766Y366963*
X587041Y366960*
X587314Y366958*
X587587Y366955*
X587860Y366952*
X588136Y366950*
X588409Y366947*
X588682Y366944*
X588957Y366942*
X589230*
X589503Y366939*
X589779Y366937*
X590052Y366934*
X590325Y366931*
X590598Y366929*
X590873Y366926*
X591146Y366923*
X591419Y366921*
X591695Y366918*
X591968Y366916*
X592241*
X592516Y366913*
X592789Y366910*
X593062Y366908*
X593338Y366905*
X593611Y366902*
X593884Y366900*
X594159Y366897*
X594432Y366895*
X594708Y366892*
X594981Y366889*
X595254Y366887*
X595529*
X595802Y366884*
X596078Y366881*
X596351Y366879*
X596627Y366876*
X596900Y366874*
X597173Y366871*
X597448Y366868*
X597721Y366866*
X597997Y366863*
X598270Y366860*
X598545Y366858*
X598818Y366855*
X599094Y366853*
X599367Y366850*
X599642Y366847*
X599915*
X600191Y366845*
X600464Y366842*
X600739Y366839*
X600739D02*
X601012Y366837D01*
X601288Y366834*
X601561Y366832*
X601837Y366829*
X602112Y366826*
X602385Y366824*
X602661Y366821*
X602934Y366819*
X602934D02*
X603209Y366816D01*
X603482Y366813*
X603758Y366811*
X604031Y366808*
X604306Y366805*
X604582Y366803*
X604855Y366800*
X605131Y366798*
X605403Y366795*
X605679Y366792*
X605955Y366790*
X606228Y366787*
X606503Y366784*
X606776Y366782*
X607052Y366779*
X607325Y366777*
X607600Y366774*
X607876Y366771*
X608149Y366769*
X608424Y366766*
X608697Y366763*
X608973Y366761*
X609249Y366758*
X609522Y366756*
X609797Y366753*
X610070Y366750*
X610346Y366748*
X610619Y366745*
X610894Y366742*
X611170Y366740*
X611443Y366737*
X611718Y366735*
X611991Y366732*
X612267Y366729*
X612540Y366727*
X612816Y366724*
X613089Y366721*
X613364Y366719*
X613637Y366716*
X613913Y366714*
X614186Y366711*
X614461Y366708*
X614734Y366706*
X615010Y366703*
X615283Y366700*
X615558Y366698*
X615831*
X616104Y366695*
X616380Y366693*
X616653Y366690*
X616928Y366687*
X617201Y366685*
X617474Y366682*
X617750Y366679*
X618023Y366677*
X618296*
X618571Y366674*
X618844Y366672*
X619117Y366669*
X619393Y366666*
X619666Y366664*
X619939*
X620212Y366661*
X620487Y366658*
X620760Y366656*
X621033*
X621306Y366653*
X621579Y366651*
X621852Y366648*
X622125*
X622398Y366645*
X622671Y366643*
X622944Y366640*
X623217Y366637*
X623490*
X623760Y366635*
X624033Y366632*
X624306Y366630*
X624577Y366627*
X624850*
X625120Y366624*
X625390Y366622*
X625663Y366619*
X625934Y366616*
X626204Y366614*
X626474Y366611*
X626745Y366609*
X627015Y366606*
X627283Y366603*
X627553Y366601*
X627821Y366598*
X628091Y366593*
X628359Y366590*
X628627Y366588*
X628894Y366585*
X629162Y366580*
X629430Y366577*
X629695Y366572*
X629963Y366569*
X630228Y366564*
X630493Y366561*
X630760Y366556*
X631023Y366551*
X631288Y366546*
X631553Y366543*
X631816Y366538*
X632081Y366532*
X632343Y366527*
X632606Y366522*
X632868Y366514*
X633128Y366509*
X633390Y366504*
X633650Y366498*
X633910Y366490*
X634170Y366485*
X634430Y366477*
X634690Y366469*
X634947Y366464*
X635204Y366456*
X635464Y366448*
X635718Y366441*
X635976Y366433*
X636233Y366425*
X636487Y366414*
X636745Y366406*
X636999Y366396*
X637254Y366388*
X637508Y366378*
X637763Y366370*
X638015Y366359*
X638270Y366349*
X638522Y366338*
X638774Y366328*
X639026Y366317*
X639278Y366304*
X639529Y366294*
X639781Y366283*
X640033Y366270*
X640283Y366257*
X640532Y366246*
X640784Y366233*
X641033Y366220*
X641283Y366207*
X641532Y366194*
X641781Y366178*
X642031Y366165*
X642280Y366149*
X642527Y366136*
X642776Y366120*
X643023Y366105*
X643272Y366089*
X643519Y366073*
X643768Y366057*
X644015Y366042*
X644262Y366023*
X644508Y366007*
X644755Y365989*
X645002Y365971*
X645249Y365952*
X645495Y365934*
X645742Y365916*
X645989Y365897*
X646233Y365876*
X646480Y365858*
X646726Y365837*
X646973Y365816*
X647217Y365795*
X647464Y365774*
X647708Y365753*
X647955Y365732*
X648199Y365708*
X648445Y365687*
X648690Y365664*
X648936Y365640*
X649180Y365616*
X649424Y365593*
X649671Y365569*
X649915Y365543*
X650159Y365519*
X650403Y365493*
X650648Y365467*
X650892Y365441*
X651136Y365414*
X651380Y365388*
X651624Y365362*
X651868Y365333*
X652112Y365307*
X652356Y365278*
X652600Y365249*
X652842Y365220*
X653086Y365191*
X653330Y365160*
X653571Y365131*
X653816Y365099*
X654057Y365070*
X654301Y365039*
X654543Y365007*
X654784Y364976*
X655028Y364942*
X655270Y364910*
X655511Y364876*
X655753Y364845*
X655994Y364811*
X656236Y364777*
X656477Y364742*
X656718Y364706*
X656960Y364672*
X657201Y364635*
X657443Y364598*
X657682Y364564*
X657923Y364527*
X658165Y364488*
X658403Y364451*
X658645Y364414*
X658884Y364375*
X659125Y364336*
X659364Y364296*
X659603Y364257*
X659842Y364217*
X660081Y364178*
X660322Y364136*
X660561Y364094*
X660800Y364055*
X661036Y364013*
X661275Y363971*
X661514Y363926*
X661753Y363884*
X661989Y363839*
X661989D02*
X662228Y363798D01*
X662466Y363753*
X662703Y363708*
X662939Y363664*
X663178Y363616*
X663414Y363572*
X663650Y363525*
X663886Y363480*
X664123Y363433*
X664359Y363385*
X664595Y363338*
X664831Y363288*
X665068Y363241*
X665304Y363191*
X665540Y363141*
X665774Y363091*
X666010Y363042*
X666243Y362992*
X666480Y362942*
X666713Y362889*
X666947Y362837*
X667180Y362787*
X667417Y362735*
X667650Y362679*
X667884Y362627*
X668117Y362574*
X668348Y362519*
X668582Y362464*
X668816Y362409*
X669049Y362354*
X669280Y362299*
X669514Y362244*
X669745Y362186*
X669976Y362131*
X670209Y362073*
X670440Y362015*
X670671Y361958*
X670902Y361900*
X671133Y361839*
X671133D02*
X671364Y361782D01*
X671595Y361721*
X671826Y361661*
X672054Y361601*
X672285Y361540*
X672514Y361480*
X525495Y362669D02*
X525637Y362706D01*
X525781Y362742*
X525926Y362777*
X526070Y362813*
X526215Y362850*
X526359Y362884*
X526503Y362921*
X526648Y362955*
X526792Y362992*
X526936Y363026*
X527081Y363060*
X527225Y363094*
X527369Y363128*
X527514Y363162*
X527658Y363196*
X527802Y363231*
X527947Y363265*
X528094Y363299*
X528238Y363333*
X528382Y363364*
X528382D02*
X528527Y363399D01*
X528674Y363433*
X528818Y363464*
X528963Y363498*
X529110Y363530*
X529254Y363561*
X529398Y363593*
X529545Y363627*
X529690Y363658*
X529837Y363690*
X529981Y363721*
X530128Y363753*
X530272Y363784*
X530419Y363816*
X530566Y363845*
X530711Y363876*
X530858Y363908*
X531002Y363937*
X531149Y363968*
X531296Y363997*
X531443Y364028*
X531587Y364057*
X531734Y364086*
X531881Y364118*
X532028Y364147*
X532175Y364175*
X532320Y364204*
X532466Y364233*
X532613Y364262*
X532760Y364291*
X532907Y364320*
X533054Y364346*
X533201Y364375*
X533348Y364404*
X533495Y364430*
X533642Y364459*
X533792Y364485*
X533939Y364514*
X534086Y364540*
X534233Y364567*
X534380Y364595*
X534527Y364622*
X534676Y364648*
X534823Y364674*
X534970Y364700*
X535120Y364727*
X535267Y364753*
X535414Y364779*
X535564Y364803*
X535711Y364829*
X535860Y364855*
X536007Y364879*
X536157Y364905*
X536304Y364929*
X536453Y364955*
X536600Y364979*
X536750Y365002*
X536897Y365028*
X537047Y365052*
X537196Y365076*
X537346Y365099*
X537493Y365123*
X537642Y365147*
X537792Y365170*
X537942Y365194*
X538089Y365215*
X538238Y365238*
X538388Y365262*
X538537Y365283*
X538687Y365307*
X538837Y365328*
X538986Y365351*
X539136Y365372*
X539285Y365393*
X539435Y365417*
X539585Y365438*
X539734Y365459*
X539884Y365480*
X540033Y365501*
X540183Y365522*
X540335Y365543*
X540485Y365564*
X540634Y365585*
X540784Y365603*
X540936Y365624*
X541086Y365645*
X541236Y365664*
X541388Y365685*
X541537Y365703*
X541687Y365724*
X541839Y365742*
X541989Y365761*
X542141Y365782*
X542291Y365800*
X542443Y365819*
X542443D02*
X542595Y365837D01*
X542745Y365855*
X542897Y365874*
X543047Y365892*
X543199Y365910*
X543351Y365929*
X543501Y365944*
X543653Y365963*
X543805Y365981*
X543957Y365997*
X544110Y366015*
X544262Y366031*
X544411Y366049*
X544564Y366065*
X544716Y366081*
X544868Y366099*
X545020Y366115*
X545173Y366131*
X545325Y366147*
X545477Y366162*
X545629Y366178*
X545781Y366194*
X545936Y366210*
X546089Y366225*
X546241Y366238*
X546393Y366254*
X546545Y366270*
X546700Y366283*
X546852Y366299*
X547005Y366312*
X547159Y366328*
X547312Y366341*
X547464Y366354*
X547619Y366370*
X547771Y366383*
X547926Y366396*
X548078Y366409*
X548233Y366422*
X548385Y366435*
X548540Y366448*
X548695Y366462*
X548847Y366475*
X549002Y366488*
X549157Y366501*
X549309Y366511*
X549464Y366525*
X549619Y366538*
X549774Y366548*
X549926Y366561*
X550081Y366572*
X550236Y366582*
X550390Y366595*
X550545Y366606*
X550700Y366616*
X550855Y366630*
X551010Y366640*
X551165Y366651*
X551320Y366661*
X551474Y366672*
X551629Y366682*
X551784Y366693*
X551942Y366700*
X552096Y366711*
X552251Y366721*
X552406Y366732*
X552564Y366740*
X552718Y366750*
X552873Y366758*
X553031Y366769*
X553186Y366777*
X553343Y366787*
X553498Y366795*
X553655Y366803*
X553810Y366811*
X553968Y366821*
X554123Y366829*
X554280Y366837*
X554438Y366845*
X554595Y366853*
X554750Y366860*
X554907Y366868*
X555065Y366876*
X555222Y366881*
X555380Y366889*
X555537Y366897*
X555695Y366902*
X555852Y366910*
X556010Y366918*
X556167Y366923*
X556325Y366931*
X556482Y366937*
X556642Y366944*
X556800Y366950*
X556957Y366955*
X557117Y366960*
X557275Y366968*
X557435Y366973*
X557592Y366979*
X557753Y366984*
X557910Y366989*
X558070Y366994*
X558230Y367000*
X558390Y367005*
X558548Y367010*
X558708Y367015*
X558868Y367021*
X559028Y367023*
X559188Y367028*
X559348Y367034*
X559508Y367036*
X559669Y367042*
X559829Y367047*
X559989Y367049*
X560149Y367052*
X560309Y367057*
X560472Y367060*
X560632Y367065*
X560792Y367068*
X560952Y367070*
X561112Y367073*
X561275Y367078*
X561435Y367081*
X561595Y367084*
X561755Y367086*
X561918Y367089*
X562078Y367091*
X562238Y367094*
X562401Y367097*
X562561Y367099*
X562721Y367102*
X562881Y367105*
X563044*
X563204Y367107*
X563364Y367110*
X563524*
X563684Y367112*
X563847Y367115*
X564007*
X564167Y367118*
X564327*
X525495Y362669D02*
G03X522631Y359765I966J-3816D01*
G01X500313Y350743D02*
G03X522630Y359759I7955J12438D01*
G01X500315Y350742D02*
G03X496184Y350803I-2115J-3321D01*
G01X497112Y202845D02*
X496855Y202994D01*
X496598Y203144*
X496341Y203296*
X496086Y203448*
X495829Y203603*
X495574Y203756*
X495322Y203910*
X495068Y204065*
X494816Y204223*
X494564Y204378*
X494312Y204535*
X494062Y204695*
X493810Y204853*
X493561Y205013*
X493314Y205173*
X493065Y205333*
X492818Y205493*
X492571Y205656*
X492327Y205819*
X492327D02*
X492081Y205981D01*
X491837Y206147*
X491592Y206312*
X491348Y206477*
X491107Y206643*
X490865Y206808*
X490624Y206976*
X490382Y207144*
X490382D02*
X490144Y207315D01*
X489905Y207485*
X489666Y207656*
X489427Y207826*
X489188Y207997*
X488952Y208170*
X488716Y208343*
X488482Y208519*
X488246Y208693*
X488012Y208868*
X487779Y209044*
X487545Y209223*
X487314Y209401*
X487081Y209580*
X486850Y209758*
X486619Y209939*
X486390Y210120*
X486159Y210304*
X485931Y210485*
X485703Y210669*
X485477Y210853*
X485249Y211039*
X485023Y211225*
X484797Y211412*
X484571Y211598*
X484348Y211787*
X484123Y211976*
X483900Y212168*
X483676Y212357*
X483456Y212548*
X483233Y212742*
X483012Y212934*
X482792Y213128*
X482571Y213325*
X482354Y213519*
X482136Y213716*
X481918Y213913*
X481700Y214110*
X481482Y214309*
X481267Y214509*
X481052Y214708*
X480839Y214910*
X480624Y215112*
X480411Y215315*
X480199Y215517*
X479989Y215721*
X479779Y215923*
X479569Y216131*
X479359Y216336*
X479149Y216543*
X478942Y216750*
X478737Y216958*
X478529Y217165*
X478325Y217375*
X478120Y217585*
X477915Y217795*
X477713Y218005*
X477511Y218217*
X477309Y218430*
X477110Y218643*
X476910Y218855*
X476711Y219070*
X476514Y219286*
X476317Y219501*
X476123Y219716*
X475926Y219931*
X475732Y220149*
X475540Y220367*
X475346Y220585*
X475154Y220803*
X474965Y221023*
X474776Y221244*
X474587Y221464*
X474398Y221685*
X474212Y221905*
X474026Y222128*
X473839Y222351*
X473655Y222574*
X473472Y222798*
X473288Y223023*
X473107Y223249*
X472926Y223475*
X472747Y223700*
X472566Y223926*
X472388Y224154*
X472212Y224383*
X472033Y224611*
X471860Y224839*
X471860D02*
X471684Y225070D01*
X471511Y225299*
X471338Y225530*
X471165Y225763*
X470994Y225994*
X470823Y226228*
X470653Y226459*
X470485Y226695*
X470314Y226929*
X470149Y227162*
X469981Y227399*
X469816Y227635*
X469650Y227871*
X469487Y228110*
X469325Y228346*
X469162Y228585*
X469002Y228824*
X468839Y229063*
X468682Y229304*
X468522Y229546*
X468364Y229787*
X468207Y230028*
X468049Y230270*
X467894Y230514*
X467739Y230758*
X467585Y231002*
X467432Y231246*
X467280Y231493*
X467128Y231737*
X466978Y231984*
X466829Y232231*
X466679Y232480*
X466532Y232727*
X466385Y232976*
X466238Y233225*
X466094Y233475*
X465949Y233727*
X465805Y233979*
X465663Y234228*
X465522Y234483*
X465380Y234735*
X465238Y234986*
X465099Y235241*
X464963Y235496*
X464823Y235750*
X464687Y236007*
X464550Y236262*
X464417Y236519*
X464283Y236777*
X464149Y237036*
X464018Y237294*
X463886Y237553*
X463755Y237813*
X463627Y238073*
X463498Y238333*
X463369Y238595*
X463243Y238858*
X463117Y239120*
X462991Y239383*
X462868Y239645*
X462745Y239910*
X462621Y240175*
X462501Y240441*
X462380Y240706*
X462259Y240971*
X462141Y241236*
X462023Y241504*
X461907Y241771*
X461792Y242039*
X461676Y242307*
X461564Y242574*
X461451Y242842*
X461338Y243112*
X461228Y243383*
X461117Y243651*
X461010Y243921*
X460902Y244191*
X460795Y244462*
X460690Y244735*
X460585Y245005*
X460480Y245275*
X460377Y245548*
X460275Y245819*
X460275D02*
X460175Y246091D01*
X460075Y246364*
X459978Y246637*
X459879Y246910*
X459784Y247183*
X459687Y247456*
X459592Y247729*
X459501Y248002*
X459409Y248275*
X459317Y248548*
X459228Y248824*
X459138Y249097*
X459052Y249370*
X458965Y249645*
X458879Y249918*
X458795Y250194*
X458711Y250467*
X458629Y250742*
X458548Y251015*
X458466Y251291*
X458388Y251567*
X458309Y251842*
X458233Y252118*
X458157Y252393*
X458081Y252669*
X458007Y252947*
X457934Y253223*
X457863Y253501*
X457792Y253777*
X457724Y254055*
X457653Y254333*
X457585Y254611*
X457519Y254889*
X457453Y255170*
X457388Y255448*
X457325Y255729*
X457262Y256010*
X457201Y256291*
X457141Y256572*
X457081Y256853*
X457020Y257136*
X456963Y257420*
X456907Y257700*
X456850Y257986*
X456795Y258270*
X456742Y258553*
X456690Y258839*
X456690D02*
X456637Y259126D01*
X456585Y259412*
X456535Y259700*
X456487Y259986*
X456438Y260275*
X456390Y260564*
X456346Y260853*
X456299Y261144*
X456254Y261435*
X456212Y261727*
X456167Y262018*
X456125Y262309*
X456086Y262603*
X456047Y262897*
X456007Y263189*
X455968Y263485*
X455931Y263779*
X455894Y264076*
X455860Y264370*
X455826Y264666*
X455792Y264965*
X455758Y265262*
X455726Y265561*
X455695Y265858*
X455666Y266157*
X455637Y266456*
X455608Y266756*
X455582Y267057*
X455556Y267359*
X455529Y267658*
X455503Y267960*
X455480Y268262*
X455456Y268567*
X455435Y268868*
X455414Y269173*
X455393Y269475*
X455375Y269779*
X455354Y270084*
X455338Y270388*
X455320Y270695*
X455304Y271000*
X455288Y271307*
X455275Y271611*
X455259Y271918*
X455246Y272225*
X455236Y272532*
X455225Y272842*
X455215Y273149*
X455204Y273456*
X455196Y273766*
X455188Y274073*
X455180Y274383*
X455175Y274693*
X455170Y275002*
X455165Y275309*
X455162Y275619*
X455157Y275929*
Y276238*
X455154Y276548*
Y276858*
Y277168*
X455157Y277477*
X455159Y277787*
X455162Y278097*
X455165Y278406*
X455170Y278716*
X455175Y279026*
X455180Y279333*
X455188Y279643*
X455196Y279952*
X455204Y280262*
X455215Y280569*
X455225Y280879*
X455236Y281186*
X455249Y281496*
X455262Y281803*
X455275Y282110*
X455288Y282417*
X455304Y282724*
X455320Y283031*
X455335Y283336*
X455354Y283643*
X455372Y283947*
X455393Y284254*
X455411Y284559*
X455432Y284863*
X455456Y285165*
X455477Y285469*
X455501Y285774*
X455524Y286076*
X455550Y286378*
X455577Y286679*
X455603Y286981*
X455632Y287283*
X455661Y287585*
X455690Y287884*
X455718Y288183*
X455750Y288485*
X455781Y288784*
X455816Y289081*
X455850Y289380*
X455884Y289679*
X455921Y289976*
X455957Y290273*
X455994Y290569*
X456033Y290866*
X456073Y291162*
X456112Y291456*
X456154Y291750*
X456196Y292047*
X456238Y292341*
X456283Y292632*
X456327Y292926*
X456372Y293217*
X456419Y293511*
X456466Y293803*
X456516Y294094*
X456566Y294383*
X456616Y294674*
X456669Y294963*
X456721Y295252*
X456774Y295540*
X456829Y295829*
X456884Y296118*
X456942Y296404*
X456999Y296690*
X457057Y296979*
X457117Y297262*
X457178Y297548*
X457238Y297834*
X457301Y298118*
X457364Y298401*
X457427Y298685*
X457493Y298968*
X457561Y299252*
X457627Y299532*
X457695Y299816*
X457766Y300097*
X457834Y300378*
X457907Y300658*
X457978Y300937*
X458052Y301217*
X458125Y301496*
X458201Y301777*
X458278Y302055*
X458354Y302333*
X458432Y302609*
X458511Y302887*
X458592Y303162*
X458674Y303441*
X458755Y303716*
X458839Y303992*
X458923Y304267*
X459010Y304543*
X459094Y304816*
X459183Y305091*
X459270Y305364*
X459359Y305637*
X459451Y305910*
X459540Y306183*
X459632Y306456*
X459726Y306729*
X459821Y307000*
X459915Y307270*
X460012Y307543*
X460110Y307813*
X460207Y308084*
X460306Y308354*
X460406Y308622*
X460508Y308892*
X460611Y309160*
X460713Y309430*
X460818Y309698*
X460923Y309965*
X461031Y310233*
X461136Y310501*
X461246Y310766*
X461354Y311034*
X461464Y311301*
X461577Y311567*
X461690Y311832*
X461802Y312097*
X461915Y312362*
X462031Y312627*
X462149Y312892*
X462264Y313154*
X462385Y313420*
X462503Y313682*
X462624Y313947*
X462745Y314210*
X462868Y314472*
X462991Y314735*
X463115Y314994*
X463241Y315257*
X463367Y315519*
X463495Y315779*
X463624Y316042*
X463753Y316301*
X463884Y316561*
X464015Y316821*
X464149Y317081*
X464283Y317341*
X464417Y317598*
X464550Y317858*
X464687Y318115*
X464826Y318372*
X464965Y318632*
X465104Y318889*
X465243Y319144*
X465385Y319401*
X465527Y319656*
X465671Y319913*
X465816Y320168*
X465960Y320422*
X466104Y320677*
X466251Y320929*
X466401Y321181*
X466548Y321435*
X466697Y321687*
X466847Y321937*
X466999Y322189*
X467152Y322438*
X467304Y322690*
X467459Y322937*
X467613Y323186*
X467768Y323435*
X467926Y323682*
X468081Y323929*
X468241Y324175*
X468398Y324420*
X468558Y324664*
X468718Y324908*
X468879Y325152*
X469041Y325396*
X469204Y325637*
X469367Y325879*
X469532Y326118*
X469697Y326359*
X469863Y326598*
X470028Y326837*
X470196Y327073*
X470364Y327309*
X470532Y327546*
X470703Y327782*
X470873Y328018*
X471044Y328252*
X471217Y328485*
X471390Y328716*
X471564Y328950*
X471737Y329181*
X471913Y329409*
X472089Y329640*
X472264Y329868*
X472443Y330097*
X472621Y330325*
X472800Y330553*
X472981Y330779*
X473159Y331005*
X473343Y331228*
X473524Y331454*
X473708Y331677*
X473892Y331900*
X474075Y332123*
X474262Y332343*
X474448Y332564*
X474634Y332784*
X474823Y333005*
X475012Y333225*
X475201Y333443*
X475393Y333661*
X475585Y333876*
X475776Y334094*
X475970Y334309*
X476165Y334525*
X476359Y334740*
X476556Y334952*
X476750Y335168*
X476949Y335380*
X477146Y335593*
X477346Y335803*
X477545Y336013*
X477747Y336225*
X477947Y336433*
X478152Y336643*
X478354Y336850*
X478558Y337057*
X478763Y337265*
X478968Y337472*
X479175Y337677*
X479382Y337881*
X479382D02*
X479590Y338086D01*
X479800Y338291*
X480007Y338493*
X480220Y338695*
X480430Y338897*
X480642Y339099*
X480855Y339299*
X481068Y339498*
X481283Y339698*
X481498Y339897*
X481713Y340094*
X481931Y340291*
X482149Y340488*
X482367Y340685*
X482585Y340879*
X482805Y341073*
X483026Y341267*
X483246Y341459*
X483466Y341653*
X483690Y341845*
X483913Y342034*
X484138Y342225*
X484362Y342414*
X484362D02*
X484587Y342603D01*
X484813Y342792*
X485041Y342979*
X485270Y343165*
X485498Y343351*
X485726Y343538*
X485955Y343721*
X486186Y343905*
X486417Y344089*
X486648Y344270*
X486881Y344454*
X487115Y344635*
X487348Y344813*
X487582Y344994*
X487818Y345173*
X488054Y345351*
X488291Y345527*
X488527Y345703*
X488766Y345879*
X489005Y346055*
X489243Y346231*
X489482Y346404*
X489724Y346577*
X489963Y346748*
X490207Y346921*
X490448Y347091*
X490690Y347259*
X490934Y347430*
X491178Y347598*
X491422Y347766*
X491669Y347931*
X491915Y348099*
X492162Y348265*
X492409Y348427*
X492655Y348593*
X492905Y348756*
X493154Y348918*
X493403Y349078*
X493653Y349238*
X493902Y349399*
X494154Y349559*
X494406Y349716*
X494658Y349874*
X494913Y350031*
X495165Y350189*
X495419Y350343*
X495674Y350498*
X495928Y350651*
X496186Y350803*
X497111Y202845D02*
G03X501024Y202817I1981J3402D01*
G01X522416Y194170D02*
G03X501020Y202815I-14148J-4217D01*
G01X522420Y194156D02*
G03X525201Y191471I3773J1125D01*
G01X633438Y186015D02*
X633154Y186013D01*
X632873Y186010*
X632590Y186007*
X632309Y186005*
X632028Y186002*
X631745*
X631464*
X631183Y186000*
X630902*
X630621*
X630341*
X630057*
X629776*
X629495*
X629212*
X628928*
X628645Y186002*
X628362*
X628362D02*
X628078Y186005D01*
X627792*
X627506Y186007*
X627220*
X626934Y186010*
X626645Y186013*
X626356Y186015*
X626065*
X625776Y186018*
X625485Y186021*
X625191Y186023*
X624900Y186026*
X624606Y186028*
X624312Y186031*
X624015Y186034*
X623721Y186036*
X623424Y186039*
X623128Y186042*
X622831Y186044*
X622535Y186049*
X622238Y186052*
X621939Y186055*
X621642Y186057*
X621346Y186060*
X621047Y186063*
X620747Y186065*
X620451Y186070*
X620152Y186073*
X619852Y186076*
X619556Y186078*
X619257Y186081*
X618960Y186084*
X618661Y186086*
X618364Y186089*
X618065Y186094*
X617768Y186097*
X617469Y186099*
X617173Y186102*
X616873Y186105*
X616577Y186107*
X616280Y186110*
X615981Y186112*
X615684Y186115*
X615388Y186118*
X615089Y186120*
X614792Y186123*
X614495Y186126*
X614199Y186128*
X613900Y186131*
X613603Y186133*
X613306Y186136*
X613010Y186139*
X612713Y186141*
X612414Y186144*
X612117Y186147*
X611821Y186149*
X611524Y186152*
X611228Y186154*
X610931Y186157*
X610634Y186160*
X610338Y186162*
X610039Y186165*
X609742Y186168*
X609445Y186170*
X609149Y186173*
X608852Y186175*
X608556Y186178*
X608259Y186181*
X607963Y186183*
X607666Y186186*
X607369Y186189*
X607073Y186191*
X606776Y186194*
X606477Y186196*
X606180Y186199*
X605884Y186202*
X605587Y186204*
X605291Y186207*
X604994Y186210*
X604697Y186212*
X604401Y186215*
X604104Y186217*
X603805Y186220*
X603508Y186223*
X603212Y186225*
X602915Y186228*
X602619Y186231*
X602322Y186233*
X602026Y186236*
X601726Y186238*
X601430Y186241*
X601133Y186244*
X600837Y186246*
X600540Y186249*
X600243Y186252*
X599944Y186254*
X599648Y186257*
X599351Y186259*
X599054Y186262*
X598758Y186265*
X598459Y186267*
X598162Y186270*
X597865Y186273*
X597569Y186275*
X597272Y186278*
X596973Y186280*
X596676Y186283*
X596380Y186286*
X596083Y186288*
X595784Y186291*
X595487Y186294*
X595191Y186296*
X594894Y186299*
X594598Y186301*
X594299Y186304*
X594002Y186307*
X593705Y186309*
X593409Y186312*
X593110Y186315*
X592813Y186317*
X592516Y186320*
X592220Y186325*
X591921Y186328*
X591624Y186330*
X591327Y186333*
X591031Y186336*
X590732Y186338*
X590435Y186341*
X590138Y186343*
X589842Y186346*
X589543Y186349*
X589246Y186351*
X588949Y186354*
X588653Y186359*
X588356Y186362*
X588057Y186364*
X587760Y186367*
X587464Y186370*
X587167Y186372*
X586868Y186375*
X586571Y186378*
X586275Y186380*
X585978Y186383*
X585682Y186385*
X585382Y186391*
X585382D02*
X585086Y186393D01*
X584789Y186396*
X584493Y186399*
X584196Y186401*
X583897Y186404*
X583600Y186406*
X583304Y186409*
X583007Y186412*
X582711Y186414*
X582414Y186417*
X582115Y186420*
X581818Y186422*
X581522Y186425*
X581225Y186427*
X580928Y186430*
X580632Y186433*
X580335Y186435*
X580039Y186438*
X579739Y186441*
X579443Y186443*
X579146Y186446*
X578850Y186448*
X578553Y186451*
X578257*
X577960Y186454*
X577663Y186456*
X577367Y186459*
X577070Y186462*
X576774Y186464*
X576477Y186467*
X576180*
X575884Y186469*
X575587Y186472*
X575293Y186475*
X574997Y186477*
X574700*
X574403Y186480*
X574110Y186483*
X573813Y186485*
X573519Y186488*
X573222Y186490*
X572928Y186493*
X572634Y186496*
X572338Y186498*
X572044Y186501*
X571750Y186504*
X571456Y186506*
X571162Y186509*
X570871Y186511*
X570577Y186514*
X570285Y186517*
X569991Y186519*
X569700Y186522*
X569409Y186527*
X569117Y186530*
X568826Y186532*
X568535Y186538*
X568246Y186540*
X567955Y186546*
X567666Y186548*
X567377Y186553*
X567089Y186559*
X566800Y186561*
X566511Y186567*
X566225Y186572*
X565939Y186577*
X565650Y186582*
X565364Y186588*
X565081Y186593*
X564795Y186598*
X564511Y186603*
X564228Y186611*
X563944Y186616*
X563661Y186624*
X563380Y186630*
X563096Y186637*
X562816Y186645*
X562535Y186653*
X562257Y186661*
X561976Y186669*
X561697Y186677*
X561419Y186685*
X561141Y186693*
X560863Y186703*
X560585Y186711*
X560309Y186721*
X560033Y186729*
X559755Y186740*
X559482Y186750*
X559207Y186761*
X558931Y186771*
X558658Y186784*
X558382Y186795*
X558382D02*
X558110Y186805D01*
X557837Y186819*
X557837D02*
X557564Y186832D01*
X557291Y186842*
X557020Y186855*
X556747Y186868*
X556477Y186884*
X556207Y186897*
X555934Y186910*
X555663Y186926*
X555393Y186942*
X555125Y186955*
X554855Y186971*
X554585Y186986*
X554317Y187002*
X554047Y187021*
X553779Y187036*
X553511Y187055*
X553241Y187073*
X552973Y187089*
X552705Y187107*
X552438Y187128*
X552170Y187147*
X551902Y187165*
X551637Y187186*
X551369Y187207*
X551102Y187228*
X550837Y187249*
X550569Y187270*
X550301Y187291*
X550036Y187315*
X549768Y187338*
X549503Y187359*
X549238Y187383*
X548970Y187409*
X548705Y187433*
X548440Y187456*
X548175Y187483*
X547907Y187509*
X547642Y187535*
X547377Y187561*
X547112Y187588*
X546847Y187616*
X546585Y187643*
X546320Y187672*
X546054Y187700*
X545789Y187729*
X545527Y187758*
X545262Y187787*
X544997Y187819*
X544997D02*
X544734Y187850D01*
X544469Y187879*
X544207Y187910*
X543944Y187944*
X543679Y187976*
X543417Y188007*
X543154Y188042*
X542892Y188076*
X542629Y188110*
X542367Y188144*
X542104Y188178*
X541842Y188215*
X541579Y188252*
X541320Y188286*
X541057Y188322*
X540795Y188362*
X540535Y188399*
X540272Y188435*
X540012Y188475*
X539750Y188514*
X539490Y188553*
X539230Y188593*
X538970Y188632*
X538708Y188674*
X538448Y188714*
X538188Y188756*
X537931Y188798*
X537671Y188839*
X537671D02*
X537411Y188881D01*
X537152Y188926*
X536894Y188971*
X536634Y189013*
X536375Y189057*
X536117Y189105*
X535860Y189149*
X535600Y189194*
X535343Y189241*
X535086Y189288*
X534829Y189336*
X534571Y189383*
X534314Y189430*
X534057Y189480*
X533800Y189530*
X533545Y189580*
X533288Y189630*
X533031Y189679*
X532776Y189729*
X532522Y189782*
X532264Y189832*
X532010Y189884*
X531755Y189937*
X531501Y189992*
X531246Y190044*
X530991Y190099*
X530737Y190154*
X530482Y190210*
X530228Y190265*
X529976Y190320*
X529721Y190378*
X529469Y190433*
X529215Y190490*
X528963Y190548*
X528711Y190606*
X528459Y190666*
X528207Y190724*
X527955Y190784*
X527703Y190845*
X527451Y190905*
X527199Y190965*
X526949Y191028*
X526697Y191089*
X526448Y191152*
X526196Y191215*
X525947Y191278*
X525697Y191343*
X525448Y191406*
X525199Y191472*
X672199Y190622D02*
X672057Y190585D01*
X671913Y190548*
X671768Y190511*
X671624Y190475*
X671480Y190438*
X671338Y190401*
X671194Y190364*
X671049Y190330*
X670905Y190294*
X670760Y190257*
X670616Y190223*
X670472Y190186*
X670327Y190152*
X670183Y190118*
X670039Y190081*
X669894Y190047*
X669750Y190013*
X669603Y189979*
X669459Y189944*
X669314Y189910*
X669170Y189876*
X669026Y189842*
X668879Y189808*
X668734Y189777*
X668590Y189742*
X668445Y189711*
X668299Y189677*
X668154Y189645*
X668010Y189611*
X667863Y189580*
X667718Y189546*
X667571Y189514*
X667427Y189483*
X667280Y189451*
X667136Y189420*
X666989Y189388*
X666844Y189357*
X666697Y189325*
X666550Y189294*
X666406Y189265*
X666259Y189233*
X666112Y189202*
X665968Y189173*
X665821Y189141*
X665674Y189112*
X665527Y189081*
X665382Y189052*
X665382D02*
X665236Y189023D01*
X665089Y188994*
X664942Y188963*
X664795Y188934*
X664648Y188905*
X664501Y188876*
X664354Y188847*
X664207Y188821*
X664060Y188792*
X663913Y188763*
X663766Y188735*
X663619Y188708*
X663472Y188679*
X663325Y188653*
X663178Y188624*
X663031Y188598*
X662884Y188572*
X662734Y188543*
X662587Y188517*
X662440Y188490*
X662293Y188464*
X662144Y188438*
X661997Y188412*
X661850Y188385*
X661700Y188359*
X661553Y188333*
X661403Y188309*
X661257Y188283*
X661107Y188257*
X660960Y188233*
X660810Y188207*
X660663Y188183*
X660514Y188160*
X660367Y188133*
X660217Y188110*
X660068Y188086*
X659921Y188063*
X659771Y188039*
X659621Y188013*
X659474Y187992*
X659325Y187968*
X659175Y187944*
X659026Y187921*
X658876Y187897*
X658729Y187876*
X658579Y187853*
X658430Y187829*
X658280Y187808*
X658131Y187784*
X657981Y187763*
X657831Y187742*
X657682Y187719*
X657532Y187698*
X657382Y187677*
X657382D02*
X657233Y187656D01*
X657083Y187635*
X656931Y187614*
X656781Y187593*
X656632Y187572*
X656482Y187551*
X656333Y187530*
X656180Y187511*
X656031Y187490*
X655881Y187469*
X655729Y187451*
X655579Y187430*
X655430Y187412*
X655278Y187393*
X655128Y187372*
X654976Y187354*
X654826Y187336*
X654674Y187317*
X654524Y187299*
X654372Y187278*
X654222Y187259*
X654070Y187244*
X653918Y187225*
X653768Y187207*
X653616Y187189*
X653464Y187170*
X653312Y187154*
X653162Y187136*
X653010Y187120*
X652858Y187102*
X652705Y187086*
X652553Y187068*
X652401Y187052*
X652249Y187036*
X652099Y187018*
X651947Y187002*
X651795Y186986*
X651642Y186971*
X651487Y186955*
X651335Y186939*
X651183Y186923*
X651031Y186908*
X650879Y186895*
X650726Y186879*
X650574Y186863*
X650419Y186850*
X650267Y186834*
X650115Y186821*
X649960Y186805*
X649808Y186792*
X649655Y186777*
X649501Y186763*
X649348Y186750*
X649194Y186737*
X649041Y186721*
X648886Y186708*
X648734Y186695*
X648579Y186682*
X648427Y186669*
X648272Y186658*
X648117Y186645*
X647965Y186632*
X647810Y186619*
X647655Y186609*
X647503Y186595*
X647348Y186582*
X647194Y186572*
X647039Y186559*
X646884Y186548*
X646729Y186538*
X646577Y186525*
X646422Y186514*
X646267Y186504*
X646112Y186493*
X645957Y186483*
X645800Y186472*
X645645Y186462*
X645490Y186451*
X645335Y186441*
X645180Y186430*
X645026Y186420*
X644868Y186409*
X644713Y186401*
X644558Y186391*
X644403Y186380*
X644246Y186372*
X644091Y186362*
X643934Y186354*
X643779Y186346*
X643621Y186336*
X643466Y186328*
X643309Y186320*
X643154Y186309*
X642997Y186301*
X642839Y186294*
X642682Y186286*
X642527Y186278*
X642369Y186270*
X642212Y186262*
X642054Y186254*
X641897Y186246*
X641739Y186241*
X641582Y186233*
X641424Y186225*
X641267Y186220*
X641110Y186212*
X640952Y186204*
X640792Y186199*
X640634Y186191*
X640477Y186186*
X640317Y186181*
X640159Y186173*
X639999Y186168*
X639842Y186162*
X639682Y186157*
X639524Y186149*
X639364Y186144*
X639204Y186139*
X639047Y186133*
X638886Y186128*
X638726Y186123*
X638566Y186118*
X638406Y186112*
X638249Y186110*
X638089Y186105*
X637928Y186099*
X637768Y186094*
X637608Y186091*
X637448Y186086*
X637288Y186084*
X637128Y186078*
X636965Y186076*
X636805Y186070*
X636645Y186068*
X636485Y186063*
X636325Y186060*
X636165Y186057*
X636005Y186052*
X635844Y186049*
X635682Y186047*
X635522Y186044*
X635362Y186042*
X635362D02*
X635201Y186039D01*
X635041Y186036*
X634881Y186034*
X634718Y186031*
X634558Y186028*
X634398Y186026*
X634238Y186023*
X634078Y186021*
X633918*
X633758Y186018*
X633598Y186015*
X633438*
X672200Y190621D02*
G03X675036Y193487I-986J3812D01*
G01X697106Y202527D02*
G03X675039Y193499I-7736J-12574D01*
G01X697100Y202531D02*
G03X701185Y202513I2057J3357D01*
G01X700228Y350112D02*
X700485Y349963D01*
X700742Y349811*
X700997Y349658*
X701251Y349506*
X701503Y349354*
X701758Y349199*
X702010Y349044*
X702262Y348889*
X702514Y348732*
X702763Y348574*
X703012Y348417*
X703262Y348259*
X703511Y348102*
X703758Y347942*
X704005Y347782*
X704251Y347619*
X704498Y347459*
X704742Y347296*
X704986Y347133*
X705230Y346971*
X705474Y346805*
X705716Y346640*
X705957Y346475*
X706199Y346309*
X706438Y346141*
X706679Y345973*
X706918Y345805*
X707157Y345635*
X707393Y345467*
X707632Y345296*
X707868Y345123*
X708104Y344952*
X708338Y344779*
X708574Y344606*
X708808Y344430*
X709041Y344257*
X709275Y344081*
X709506Y343902*
X709737Y343727*
X709968Y343548*
X710199Y343370*
X710427Y343189*
X710658Y343007*
X710886Y342826*
X711115Y342645*
X711341Y342462*
X711569Y342280*
X711795Y342094*
X712020Y341910*
X712243Y341724*
X712469Y341538*
X712692Y341349*
X712915Y341162*
X713138Y340971*
X713359Y340782*
X713582Y340590*
X713802Y340399*
X714023Y340207*
X714241Y340015*
X714461Y339821*
X714679Y339624*
X714897Y339430*
X715115Y339233*
X715330Y339036*
X715545Y338839*
X715545D02*
X715760Y338640D01*
X715976Y338441*
X716188Y338241*
X716401Y338042*
X716613Y337839*
X716613D02*
X716823Y337637D01*
X717036Y337435*
X717246Y337233*
X717453Y337028*
X717663Y336824*
X717871Y336619*
X718078Y336412*
X718283Y336204*
X718490Y335997*
X718695Y335790*
X718897Y335580*
X719102Y335372*
X719304Y335162*
X719503Y334950*
X719705Y334740*
X719905Y334527*
X720102Y334315*
X720301Y334102*
X720498Y333889*
X720695Y333674*
X720889Y333459*
X721083Y333244*
X721278Y333028*
X721469Y332811*
X721661Y332595*
X721852Y332378*
X722044Y332157*
X722233Y331939*
X722419Y331719*
X722608Y331501*
X722795Y331280*
X722981Y331057*
X723165Y330837*
X723348Y330614*
X723532Y330391*
X723713Y330168*
X723894Y329944*
X724075Y329719*
X724254Y329493*
X724432Y329267*
X724611Y329042*
X724789Y328816*
X724965Y328588*
X725138Y328359*
X725314Y328131*
X725487Y327902*
X725661Y327672*
X725831Y327441*
X726005Y327210*
X726173Y326979*
X726343Y326748*
X726511Y326514*
X726679Y326280*
X726847Y326047*
X727012Y325813*
X727178Y325577*
X727341Y325341*
X727506Y325105*
X727669Y324868*
X727829Y324632*
X727991Y324393*
X728152Y324154*
X728312Y323916*
X728469Y323677*
X728627Y323435*
X728784Y323196*
X728939Y322955*
X729096Y322711*
X729249Y322469*
X729403Y322225*
X729556Y321984*
X729708Y321740*
X729860Y321493*
X730010Y321249*
X730159Y321002*
X730306Y320756*
X730456Y320509*
X730603Y320262*
X730747Y320013*
X730894Y319763*
X731039Y319514*
X731180Y319265*
X731325Y319015*
X731466Y318763*
X731606Y318511*
X731747Y318259*
X731886Y318007*
X732023Y317753*
X732162Y317501*
X732299Y317246*
X732432Y316992*
X732569Y316735*
X732703Y316480*
X732837Y316223*
X732968Y315965*
X733099Y315708*
X733230Y315448*
X733359Y315189*
X733487Y314931*
X733616Y314672*
X733742Y314409*
X733868Y314149*
X733994Y313887*
X734117Y313624*
X734241Y313362*
X734364Y313099*
X734485Y312834*
X734606Y312572*
X734724Y312307*
X734844Y312042*
X734960Y311777*
X735078Y311511*
X735194Y311244*
X735309Y310976*
X735422Y310711*
X735535Y310443*
X735648Y310175*
X735758Y309908*
X735868Y309637*
X735978Y309370*
X736086Y309099*
X736194Y308832*
X736299Y308561*
X736403Y308291*
X736508Y308021*
X736611Y307750*
X736713Y307480*
X736813Y307210*
X736913Y306937*
X737012Y306666*
X737110Y306393*
X737207Y306123*
X737301Y305850*
X737396Y305580*
X737490Y305307*
X737582Y305034*
X737674Y304761*
X737763Y304490*
X737852Y304217*
X737942Y303944*
X738028Y303672*
X738115Y303399*
X738199Y303126*
X738283Y302853*
X738367Y302577*
X738448Y302304*
X738529Y302031*
X738608Y301756*
X738687Y301483*
X738763Y301207*
X738842Y300934*
X738915Y300658*
X738991Y300383*
X739065Y300107*
X739136Y299832*
X739207Y299556*
X739278Y299280*
X739346Y299002*
X739414Y298727*
X739482Y298448*
X739548Y298170*
X739613Y297892*
X739679Y297614*
X739742Y297336*
X739802Y297055*
X739865Y296777*
X739926Y296496*
X739984Y296215*
X740044Y295934*
X740099Y295653*
X740157Y295370*
X740212Y295086*
X740267Y294805*
X740320Y294522*
X740372Y294236*
X740424Y293952*
X740474Y293666*
X740524Y293380*
X740574Y293094*
X740621Y292808*
X740669Y292519*
X740716Y292231*
X740760Y291942*
X740805Y291653*
X740847Y291362*
X740889Y291073*
X740931Y290782*
X740973Y290490*
X741012Y290196*
X741049Y289905*
X741089Y289611*
X741125Y289317*
X741162Y289023*
X741196Y288729*
X741230Y288433*
X741264Y288139*
X741296Y287842*
X741327Y287546*
X741359Y287249*
X741388Y286950*
X741417Y286653*
X741445Y286354*
X741474Y286055*
X741501Y285756*
X741524Y285456*
X741550Y285154*
X741574Y284855*
X741595Y284553*
X741619Y284252*
X741640Y283950*
X741661Y283648*
X741679Y283343*
X741697Y283042*
X741716Y282737*
X741734Y282433*
X741750Y282128*
X741763Y281824*
X741779Y281519*
X741792Y281212*
X741805Y280908*
X741818Y280601*
X741829Y280294*
X741839Y279986*
X741847Y279679*
X741858Y279372*
X741865Y279065*
X741871Y278758*
X741879Y278448*
X741884Y278141*
X741886Y277834*
X741892Y277525*
X741894Y277217*
X741897Y276908*
Y276601*
Y276291*
Y275981*
Y275674*
X741894Y275364*
X741892Y275057*
X741886Y274748*
X741884Y274441*
X741879Y274131*
X741871Y273824*
X741865Y273514*
X741858Y273207*
X741850Y272900*
X741839Y272593*
X741829Y272283*
X741818Y271976*
X741805Y271669*
X741795Y271364*
X741779Y271057*
X741766Y270750*
X741750Y270446*
X741734Y270139*
X741718Y269834*
X741700Y269530*
X741682Y269225*
X741663Y268921*
X741645Y268619*
X741624Y268315*
X741603Y268013*
X741579Y267711*
X741556Y267406*
X741532Y267107*
X741508Y266805*
X741482Y266504*
X741456Y266204*
X741427Y265902*
X741398Y265603*
X741369Y265304*
X741341Y265005*
X741309Y264708*
X741278Y264409*
X741246Y264112*
X741212Y263816*
X741178Y263519*
X741141Y263223*
X741104Y262926*
X741068Y262630*
X741031Y262336*
X740991Y262042*
X740952Y261748*
X740910Y261454*
X740868Y261160*
X740826Y260866*
X740781Y260574*
X740739Y260283*
X740692Y259992*
X740648Y259700*
X740598Y259409*
X740550Y259120*
X740501Y258829*
X740451Y258540*
X740401Y258252*
X740348Y257963*
X740296Y257677*
X740241Y257388*
X740186Y257102*
X740131Y256816*
X740073Y256530*
X740015Y256244*
X739955Y255960*
X739894Y255674*
X739834Y255391*
X739774Y255107*
X739711Y254824*
X739645Y254540*
X739582Y254259*
X739516Y253976*
X739448Y253695*
X739380Y253414*
X739312Y253133*
X739241Y252853*
X739173Y252574*
X739099Y252294*
X739028Y252015*
X738952Y251737*
X738879Y251459*
X738802Y251181*
X738726Y250902*
X738650Y250627*
X738571Y250351*
X738490Y250073*
X738411Y249798*
X738330Y249525*
X738246Y249249*
X738162Y248973*
X738078Y248700*
X737994Y248425*
X737907Y248152*
X737818Y247879*
X737732Y247606*
X737642Y247336*
X737550Y247063*
X737459Y246792*
X737367Y246519*
X737272Y246249*
X737180Y245979*
X737083Y245708*
X736989Y245441*
X736889Y245170*
X736792Y244900*
X736692Y244632*
X736592Y244364*
X736490Y244097*
X736388Y243829*
X736285Y243561*
X736180Y243294*
X736075Y243028*
X735970Y242761*
X735863Y242496*
X735753Y242231*
X735645Y241965*
X735535Y241700*
X735422Y241435*
X735312Y241170*
X735196Y240908*
X735083Y240643*
X734968Y240380*
X734852Y240118*
X734734Y239853*
X734616Y239590*
X734495Y239330*
X734377Y239068*
X734254Y238805*
X734133Y238546*
X734010Y238283*
X733884Y238023*
X733760Y237763*
X733632Y237501*
X733506Y237241*
X733377Y236984*
X733249Y236724*
X733117Y236464*
X732986Y236207*
X732855Y235947*
X732721Y235690*
X732587Y235433*
X732451Y235173*
X732314Y234918*
X732178Y234661*
X732039Y234404*
X731900Y234149*
X731760Y233892*
X731619Y233637*
X731477Y233383*
X731335Y233128*
X731191Y232876*
X731047Y232622*
X730900Y232370*
X730753Y232118*
X730606Y231866*
X730459Y231614*
X730309Y231364*
X730159Y231112*
X730007Y230863*
X729858Y230614*
X729705Y230367*
X729550Y230118*
X729396Y229871*
X729241Y229624*
X729086Y229378*
X728928Y229131*
X728771Y228887*
X728613Y228643*
X728453Y228399*
X728293Y228157*
X728133Y227916*
X727973Y227672*
X727810Y227433*
X727648Y227191*
X727482Y226952*
X727320Y226714*
X727154Y226475*
X726986Y226238*
X726821Y226002*
X726653Y225766*
X726485Y225532*
X726314Y225296*
X726146Y225063*
X725976Y224829*
X725802Y224598*
X725632Y224367*
X725459Y224136*
X725283Y223905*
X725110Y223677*
X724934Y223446*
X724758Y223217*
X724579Y222992*
X724401Y222763*
X724222Y222538*
X724044Y222312*
X723863Y222089*
X723682Y221863*
X723501Y221640*
X723317Y221417*
X723133Y221194*
X722949Y220973*
X722766Y220753*
X722579Y220532*
X722393Y220312*
X722204Y220094*
X722015Y219876*
X721826Y219658*
X721637Y219441*
X721445Y219225*
X721254Y219007*
X721062Y218795*
X720868Y218580*
X720674Y218364*
X720477Y218152*
X720283Y217939*
X720086Y217727*
X719886Y217517*
X719690Y217304*
X719490Y217094*
X719291Y216887*
X719089Y216677*
X718886Y216469*
X718684Y216262*
X718482Y216055*
X718278Y215847*
X718073Y215643*
X717865Y215438*
X717661Y215233*
X717453Y215028*
X717243Y214826*
X717036Y214624*
X716826Y214422*
X716616Y214220*
X716403Y214021*
X716191Y213821*
X715978Y213622*
X715766Y213422*
X715550Y213225*
X715335Y213028*
X715120Y212832*
X714905Y212637*
X714687Y212441*
X714469Y212246*
X714249Y212055*
X714031Y211860*
X713810Y211669*
X713590Y211477*
X713367Y211286*
X713146Y211097*
X712923Y210905*
X712697Y210716*
X712474Y210530*
X712249Y210341*
X712023Y210154*
X711795Y209968*
X711569Y209784*
X711341Y209598*
X711112Y209414*
X710881Y209233*
X710653Y209049*
X710422Y208868*
X710191Y208687*
X709957Y208506*
X709726Y208328*
X709493Y208149*
X709257Y207971*
X709023Y207792*
X708787Y207616*
X708550Y207441*
X708314Y207265*
X708078Y207091*
X707839Y206916*
X707600Y206745*
X707362Y206572*
X707362D02*
X707123Y206401D01*
X706881Y206231*
X706640Y206060*
X706398Y205889*
X706157Y205721*
X705913Y205553*
X705669Y205388*
X705424Y205220*
X705180Y205055*
X704934Y204889*
X704690Y204727*
X704443Y204564*
X704196Y204401*
X703947Y204238*
X703700Y204078*
X703451Y203918*
X703201Y203758*
X702949Y203601*
X702700Y203443*
X702448Y203286*
X702196Y203131*
X701944Y202973*
X701692Y202819*
X701692D02*
X701438Y202666D01*
X701183Y202511*
X694429Y331685D02*
Y223460D01*
G03X702303I3937J0*
G01Y331685*
G03X694429I-3937J-0*
G01X1091839Y208661D02*
G03X1078060Y194882I0J-13779D01*
G01Y192288*
X1068785Y180753D02*
G03X1078060Y192288I-2536J11535D01*
G01X1046635Y178346D02*
G03X1068785Y180753I0J103150D01*
G01X944273Y178346D02*
X1046635D01*
X930809Y179229D02*
G03X944273Y178346I13464J102267D01*
G01X920580Y190934D02*
G03X930849Y179224I11811J-0D01*
G01X920580Y190934D02*
Y194882D01*
G03X906800Y208661I-13780J0*
G01X876311*
X867520Y212585D02*
G03X876311Y208661I8791J7887D01*
G01X869575Y352630D02*
G03X867497Y212609I74698J-71134D01*
G01X878131Y356299D02*
G03X869578Y352633I0J-11811D01*
G01X878131Y356299D02*
X906800D01*
G03X920580Y370079I0J13780*
G01Y372058*
X930849Y383768D02*
G03X920580Y372058I1542J-11710D01*
G01X944273Y384646D02*
G03X930809Y383763I-0J-103150D01*
G01X1046635Y384646D02*
X944273D01*
X1068785Y382239D02*
G03X1046635Y384646I-22150J-100743D01*
G01X1078060Y370704D02*
G03X1068785Y382239I-11811J-0D01*
G01X1078060Y370704D02*
Y368110D01*
G03X1091839Y354331I13779J0*
G01X1114597*
X1123388Y350407D02*
G03X1114597Y354331I-8791J-7887D01*
G01X1123411Y212609D02*
G03Y350383I-76776J68887D01*
G01X1114597Y208661D02*
G03X1123388Y212585I0J11811D01*
G01X1114597Y208661D02*
X1091839D01*
X1310415Y326772D02*
G03X1306478Y322835I-0J-3937D01*
G01Y240157D02*
Y322835D01*
Y240157D02*
G03X1310415Y236220I3937J0D01*
G01X1412613D02*
X1310415D01*
X1412613D02*
Y220079D01*
X1468592*
Y198703D02*
Y220079D01*
X1468594Y198709D02*
G03X1467930Y195750I10128J-3827D01*
G01X1308425Y196169D02*
G03X1296635Y207280I-11790J-700D01*
G01X1236142Y240045D02*
G03X1253199Y210323I107374J41863D01*
G01X1327922Y386167D02*
X1327875D01*
X1327875D02*
X1327827D01*
X1327780Y386166*
X1327732*
X1327685*
X1327638*
X1327591*
X1327543Y386165*
X1327496*
X1327449*
X1327402*
X1327354*
X1327307*
X1327260Y386164*
X1327213*
X1327165*
X1327118Y386163*
X1327071*
X1327024*
X1326976*
X1326929*
X1326882Y386162*
X1326834*
X1326787Y386161*
X1326740*
X1326693*
X1326645Y386160*
X1326598*
X1326551*
X1326504Y386159*
X1326456*
X1326409Y386158*
X1326362*
X1326315Y386157*
X1326267Y386156*
X1326220*
X1326173Y386155*
X1326126Y386154*
X1326078*
X1326031Y386153*
X1325984Y386152*
X1325937*
X1325889Y386151*
X1325842Y386150*
X1325795Y386149*
X1325747Y386148*
X1325747D02*
X1325700Y386147D01*
X1325653*
X1325606Y386145*
X1325558*
X1325511Y386143*
X1325464Y386142*
X1325417Y386141*
X1325369Y386140*
X1325322Y386139*
X1325275Y386137*
X1325228Y386136*
X1325180Y386135*
X1325133Y386133*
X1325086Y386132*
X1325039Y386130*
X1324991Y386128*
X1324944Y386127*
X1324897Y386125*
X1324850Y386123*
X1324802Y386121*
X1324755Y386120*
X1324708Y386118*
X1324661Y386116*
X1324613Y386113*
X1324566Y386111*
X1324519Y386110*
X1324472Y386107*
X1324425Y386105*
X1324378Y386102*
X1324330Y386100*
X1324283Y386097*
X1324236Y386095*
X1324189Y386092*
X1324141Y386089*
X1324095Y386087*
X1324047Y386084*
X1324000Y386081*
X1323953Y386078*
X1323906Y386075*
X1323858Y386072*
X1323812Y386069*
X1323764Y386065*
X1323717Y386062*
X1323670Y386059*
X1323623Y386055*
X1323576Y386052*
X1323528Y386048*
X1323481Y386045*
X1323434Y386041*
X1323387Y386037*
X1323340Y386033*
X1323293Y386029*
X1323246Y386025*
X1323199Y386021*
X1323152Y386017*
X1323104Y386012*
X1323058Y386008*
X1323010Y386003*
X1322963Y385999*
X1322916Y385994*
X1322869Y385989*
X1322822Y385985*
X1322775Y385980*
X1322728Y385975*
X1322681Y385970*
X1322634Y385965*
X1322587Y385960*
X1322540Y385954*
X1322493Y385949*
X1322447Y385943*
X1322399Y385938*
X1322352Y385932*
X1322306Y385926*
X1322259Y385921*
X1322212Y385915*
X1322165Y385909*
X1322118Y385902*
X1322071Y385897*
X1322024Y385890*
X1321977Y385884*
X1321930Y385878*
X1321884Y385871*
X1321837Y385864*
X1321790Y385858*
X1321743Y385851*
X1321697Y385844*
X1321650Y385837*
X1321603Y385830*
X1321556Y385823*
X1321510Y385815*
X1321463Y385808*
X1321416Y385801*
X1321370Y385793*
X1321323Y385786*
X1321276Y385778*
X1321230Y385770*
X1321183Y385762*
X1321137Y385754*
X1321090Y385746*
X1321043Y385738*
X1320997Y385730*
X1320950Y385721*
X1320904Y385713*
X1320857Y385704*
X1320811Y385695*
X1320765Y385686*
X1320718Y385677*
X1320672Y385668*
X1320625Y385659*
X1320579Y385650*
X1320532Y385641*
X1320486Y385631*
X1320440Y385621*
X1320394Y385612*
X1320347Y385602*
X1320301Y385592*
X1320255Y385582*
X1320209Y385572*
X1320163Y385561*
X1320117Y385551*
X1320071Y385541*
X1320024Y385530*
X1319978Y385519*
X1319932Y385509*
X1319886Y385498*
X1319840Y385487*
X1319794Y385476*
X1319748Y385464*
X1319702Y385453*
X1319656Y385441*
X1319611Y385430*
X1319565Y385418*
X1319519Y385406*
X1319473Y385394*
X1319428Y385382*
X1319382Y385370*
X1319336Y385358*
X1319291Y385345*
X1319245Y385333*
X1319200Y385320*
X1319154Y385307*
X1319108Y385294*
X1319063Y385281*
X1319018Y385268*
X1318972Y385255*
X1318927Y385241*
X1318882Y385228*
X1318836Y385214*
X1318791Y385200*
X1318746Y385186*
X1318701Y385172*
X1318656Y385158*
X1318611Y385144*
X1318565Y385129*
X1318521Y385115*
X1318476Y385100*
X1318431Y385086*
X1318386Y385071*
X1318341Y385055*
X1318296Y385040*
X1318251Y385025*
X1318207Y385010*
X1318162Y384994*
X1318117Y384978*
X1318073Y384962*
X1318028Y384946*
X1317984Y384930*
X1317939Y384914*
X1317895Y384898*
X1317850Y384881*
X1317806Y384865*
X1317762Y384848*
X1317718Y384831*
X1317674Y384814*
X1317630Y384797*
X1317586Y384779*
X1317542Y384762*
X1317498Y384744*
X1317454Y384726*
X1317410Y384709*
X1317367Y384691*
X1317323Y384673*
X1317279Y384654*
X1317236Y384636*
X1317192Y384617*
X1317149Y384599*
X1317105Y384580*
X1317062Y384561*
X1317019Y384542*
X1316975Y384523*
X1316932Y384503*
X1316889Y384484*
X1316846Y384464*
X1316803Y384444*
X1316760Y384424*
X1316717Y384404*
X1316675Y384384*
X1316632Y384363*
X1316589Y384343*
X1316547Y384323*
X1316504Y384302*
X1316462Y384281*
X1316420Y384260*
X1316378Y384238*
X1316336Y384217*
X1316293Y384195*
X1316251Y384174*
X1316209Y384152*
X1316167Y384130*
X1316126Y384108*
X1316084Y384086*
X1316042Y384063*
X1316000Y384040*
X1315959Y384018*
X1315918Y383995*
X1315876Y383972*
X1315835Y383948*
X1315835D02*
X1315794Y383925D01*
X1315753Y383902*
X1315712Y383878*
X1315671Y383854*
X1315630Y383831*
X1315589Y383807*
X1315549Y383782*
X1315508Y383758*
X1315468Y383734*
X1315427Y383709*
X1315387Y383684*
X1315347Y383659*
X1315307Y383634*
X1315267Y383609*
X1315227Y383584*
X1315187Y383558*
X1315147Y383532*
X1315108Y383506*
X1315068Y383480*
X1315029Y383454*
X1314989Y383428*
X1314950Y383402*
X1314911Y383375*
X1314872Y383348*
X1314872D02*
X1314833Y383321D01*
X1314794Y383295*
X1314756Y383267*
X1314717Y383240*
X1314678Y383213*
X1314640Y383185*
X1314602Y383157*
X1314563Y383129*
X1314525Y383101*
X1314487Y383073*
X1314449Y383045*
X1314412Y383016*
X1314374Y382987*
X1314337Y382958*
X1314299Y382930*
X1314262Y382900*
X1314225Y382871*
X1314225D02*
X1314187Y382842D01*
X1314150Y382812*
X1314114Y382783*
X1314077Y382753*
X1314041Y382723*
X1314004Y382693*
X1313968Y382662*
X1313932Y382632*
X1313895Y382601*
X1313860Y382571*
X1313824Y382540*
X1313788Y382509*
X1313752Y382478*
X1313717Y382446*
X1313682Y382415*
X1313646Y382383*
X1313611Y382352*
X1313576Y382320*
X1313541Y382287*
X1313507Y382256*
X1313472Y382223*
X1313437Y382191*
X1313403Y382158*
X1313369Y382125*
X1313335Y382093*
X1313301Y382060*
X1313267Y382026*
X1313234Y381993*
X1313200Y381960*
X1313167Y381926*
X1313134Y381893*
X1313101Y381859*
X1313068Y381825*
X1313035Y381791*
X1313002Y381757*
X1312970Y381722*
X1312937Y381688*
X1312905Y381653*
X1312873Y381619*
X1312841Y381584*
X1312809Y381549*
X1312777Y381513*
X1312746Y381478*
X1312714Y381443*
X1312683Y381408*
X1312652Y381372*
X1312621Y381336*
X1312589Y381300*
X1312559Y381265*
X1312528Y381229*
X1312498Y381193*
X1312467Y381156*
X1312437Y381120*
X1312407Y381083*
X1312377Y381047*
X1312347Y381010*
X1312317Y380973*
X1312288Y380936*
X1312259Y380899*
X1312230Y380862*
X1312200Y380824*
X1312171Y380787*
X1312143Y380750*
X1312114Y380712*
X1312085Y380674*
X1312057Y380637*
X1312028Y380598*
X1312028D02*
X1312000Y380561D01*
X1311973Y380523*
X1311945Y380484*
X1311917Y380446*
X1311889Y380408*
X1311862Y380369*
X1311834Y380330*
X1311807Y380292*
X1311780Y380253*
X1311753Y380214*
X1311726Y380175*
X1311700Y380136*
X1311673Y380097*
X1311647Y380058*
X1311621Y380018*
X1311594Y379979*
X1311568Y379939*
X1311543Y379900*
X1311517Y379860*
X1311491Y379820*
X1311466Y379780*
X1311440Y379741*
X1311415Y379700*
X1311390Y379660*
X1311365Y379620*
X1311340Y379580*
X1311316Y379540*
X1311291Y379499*
X1311267Y379459*
X1311242Y379418*
X1311218Y379378*
X1311194Y379337*
X1311170Y379296*
X1311147Y379255*
X1311123Y379214*
X1311099Y379173*
X1311076Y379132*
X1311053Y379091*
X1311030Y379050*
X1311007Y379008*
X1310984Y378967*
X1310961Y378926*
X1310938Y378884*
X1310916Y378843*
X1310893Y378801*
X1310871Y378759*
X1310849Y378717*
X1310827Y378676*
X1310805Y378634*
X1310783Y378592*
X1310762Y378550*
X1310740Y378508*
X1310719Y378465*
X1310697Y378423*
X1310676Y378381*
X1310655Y378339*
X1310634Y378296*
X1310613Y378254*
X1310593Y378211*
X1310572Y378169*
X1310552Y378126*
X1310531Y378084*
X1310511Y378041*
X1310491Y377998*
X1310471Y377955*
X1310451Y377912*
X1310431Y377869*
X1310412Y377826*
X1310392Y377783*
X1310373Y377740*
X1310354Y377697*
X1310334Y377654*
X1310315Y377611*
X1310296Y377567*
X1310277Y377524*
X1310259Y377480*
X1310240Y377437*
X1310221Y377393*
X1310203Y377350*
X1310185Y377306*
X1310167Y377263*
X1310149Y377219*
X1310130Y377175*
X1310112Y377132*
X1310095Y377088*
X1310077Y377044*
X1310060Y377000*
X1310042Y376956*
X1310025Y376912*
X1310025D02*
X1310008Y376868D01*
X1309990Y376824*
X1309973Y376780*
X1309956Y376736*
X1309939Y376692*
X1309923Y376647*
X1309906Y376603*
X1309890Y376559*
X1309873Y376515*
X1309857Y376470*
X1309841Y376426*
X1309825Y376381*
X1309825D02*
X1309809Y376337D01*
X1309793Y376292*
X1309777Y376248*
X1309761Y376203*
X1309746Y376159*
X1309730Y376114*
X1309715Y376069*
X1309699Y376024*
X1309684Y375980*
X1309669Y375935*
X1309654Y375890*
X1309639Y375845*
X1309624Y375800*
X1309610Y375756*
X1309595Y375710*
X1309580Y375665*
X1309566Y375621*
X1309552Y375575*
X1309537Y375530*
X1309523Y375485*
X1309509Y375440*
X1309495Y375395*
X1309481Y375350*
X1309467Y375304*
X1309454Y375259*
X1309440Y375214*
X1309427Y375169*
X1309413Y375123*
X1309400Y375078*
X1309387Y375032*
X1309374Y374987*
X1309361Y374941*
X1309348Y374896*
X1309335Y374850*
X1309323Y374805*
X1309310Y374759*
X1309297Y374713*
X1309285Y374668*
X1309273Y374622*
X1309260Y374576*
X1309249Y374531*
X1309236Y374485*
X1309225Y374439*
X1309225D02*
X1309212Y374394D01*
X1309201Y374348*
X1309189Y374302*
X1309178Y374256*
X1309166Y374210*
X1309155Y374164*
X1309143Y374119*
X1309132Y374073*
X1309121Y374026*
X1309110Y373980*
X1309099Y373934*
X1309088Y373889*
X1309078Y373843*
X1309067Y373797*
X1309056Y373750*
X1309046Y373704*
X1309036Y373658*
X1309025Y373612*
X1309015Y373566*
X1309005Y373519*
X1308995Y373473*
X1308985Y373427*
X1308975Y373381*
X1308965Y373334*
X1308956Y373288*
X1308947Y373242*
X1308937Y373195*
X1308928Y373149*
X1308918Y373103*
X1308909Y373056*
X1308900Y373010*
X1308891Y372963*
X1308882Y372917*
X1308873Y372871*
X1308865Y372824*
X1308856Y372778*
X1308847Y372731*
X1308839Y372685*
X1308830Y372638*
X1308822Y372592*
X1308814Y372545*
X1308806Y372498*
X1308806D02*
X1308797Y372452D01*
X1308789Y372405*
X1308782Y372359*
X1308774Y372312*
X1308766Y372265*
X1308758Y372219*
X1308751Y372172*
X1308743Y372125*
X1308736Y372079*
X1308728Y372032*
X1308721Y371985*
X1308714Y371939*
X1308707Y371892*
X1308700Y371845*
X1308693Y371798*
X1308693D02*
X1308686Y371752D01*
X1308679Y371705*
X1308673Y371658*
X1308666Y371611*
X1308659Y371564*
X1308652Y371517*
X1308646Y371471*
X1308640Y371424*
X1308634Y371377*
X1308627Y371330*
X1308621Y371283*
X1308615Y371236*
X1308609Y371189*
X1308603Y371143*
X1308597Y371096*
X1308591Y371049*
X1308586Y371002*
X1308580Y370955*
X1308575Y370908*
X1308575D02*
X1308569Y370861D01*
X1308563Y370814*
X1308558Y370767*
X1308553Y370720*
X1308547Y370673*
X1308542Y370626*
X1308537Y370579*
X1308532Y370532*
X1308527Y370485*
X1308522Y370438*
X1308517Y370391*
X1308512Y370344*
X1308507Y370297*
X1308502Y370250*
X1308497Y370203*
X1308493Y370156*
X1308488Y370109*
X1308483Y370062*
X1308479Y370015*
X1308474Y369968*
X1308470Y369921*
X1308465Y369874*
X1308461Y369827*
X1308456Y369780*
X1308452Y369733*
X1308447Y369686*
X1308443Y369639*
X1308439Y369591*
X1308434Y369545*
X1308430Y369497*
X1308426Y369450*
X1308422Y369403*
X1308417Y369356*
X1308413Y369309*
X1308409Y369262*
X1308405Y369215*
X1308401Y369168*
X1308397Y369121*
X1308393Y369074*
X1308389Y369026*
X1308385Y368980*
X1308380Y368932*
X1308376Y368885*
X1308373Y368838*
X1308369Y368791*
X1308364Y368744*
X1308360Y368697*
X1308356Y368650*
X1448253Y386167D02*
X1327922D01*
X1448309Y177649D02*
X1448360D01*
X1448410*
X1448462Y177650*
X1448512*
X1448563*
X1448614*
X1448665*
X1448716*
X1448767*
X1448818Y177651*
X1448869*
X1448919*
X1448971Y177652*
X1449021*
X1449072*
X1449123*
X1449174*
X1449225Y177653*
X1449276*
X1449327Y177654*
X1449378*
X1449428*
X1449480Y177655*
X1449530*
X1449581Y177656*
X1449632*
X1449683*
X1449734Y177657*
X1449785*
X1449836Y177658*
X1449887*
X1449937Y177659*
X1449989Y177660*
X1450039*
X1450090Y177661*
X1450141*
X1450192Y177662*
X1450243Y177663*
X1450294Y177664*
X1450345Y177665*
X1450396*
X1450447Y177667*
X1450497*
X1450549Y177669*
X1450599*
X1450650Y177671*
X1450701Y177672*
X1450752Y177673*
X1450803Y177674*
X1450854Y177675*
X1450905Y177676*
X1450956Y177678*
X1451006Y177679*
X1451057Y177681*
X1451108Y177682*
X1451159Y177684*
X1451210Y177686*
X1451261Y177687*
X1451312Y177689*
X1451363Y177691*
X1451413Y177693*
X1451464Y177695*
X1451515Y177697*
X1451566Y177698*
X1451566D02*
X1451617Y177700D01*
X1451668Y177703*
X1451719Y177705*
X1451769Y177708*
X1451821Y177710*
X1451871Y177712*
X1451922Y177715*
X1451973Y177717*
X1452024Y177720*
X1452075Y177723*
X1452075D02*
X1452125Y177726D01*
X1452176Y177729*
X1452227Y177732*
X1452278Y177735*
X1452329Y177738*
X1452380Y177741*
X1452430Y177745*
X1452481Y177748*
X1452532Y177752*
X1452583Y177755*
X1452634Y177759*
X1452684Y177762*
X1452735Y177766*
X1452786Y177770*
X1452837Y177774*
X1452887Y177778*
X1452938Y177782*
X1452989Y177787*
X1453039Y177791*
X1453090Y177795*
X1453141Y177800*
X1453192Y177804*
X1453242Y177809*
X1453293Y177814*
X1453344Y177819*
X1453394Y177824*
X1453445Y177829*
X1453496Y177834*
X1453546Y177839*
X1453597Y177845*
X1453648Y177850*
X1453698Y177856*
X1453749Y177861*
X1453799Y177867*
X1453850Y177873*
X1453900Y177879*
X1453951Y177885*
X1454002Y177891*
X1454052Y177897*
X1454103Y177904*
X1454153Y177910*
X1454204Y177917*
X1454254Y177923*
X1454305Y177930*
X1454355Y177937*
X1454406Y177944*
X1454456Y177950*
X1454506Y177958*
X1454557Y177965*
X1454607Y177973*
X1454658Y177980*
X1454708Y177987*
X1454758Y177995*
X1454808Y178003*
X1454859Y178011*
X1454909Y178019*
X1454960Y178027*
X1455010Y178035*
X1455060Y178043*
X1455110Y178052*
X1455160Y178060*
X1455210Y178069*
X1455261Y178078*
X1455311Y178087*
X1455361Y178096*
X1455411Y178105*
X1455461Y178114*
X1455511Y178123*
X1455561Y178133*
X1455611Y178143*
X1455661Y178152*
X1455711Y178162*
X1455761Y178172*
X1455811Y178182*
X1455861Y178192*
X1455911Y178203*
X1455960Y178213*
X1456010Y178224*
X1456060Y178234*
X1456110Y178245*
X1456160Y178256*
X1456209Y178267*
X1456259Y178278*
X1456308Y178290*
X1456358Y178301*
X1456408Y178313*
X1456457Y178325*
X1456507Y178337*
X1456556Y178348*
X1456556D02*
X1456606Y178361D01*
X1456655Y178373*
X1456704Y178386*
X1456754Y178398*
X1456803Y178411*
X1456852Y178424*
X1456902Y178437*
X1456951Y178450*
X1457000Y178463*
X1457049Y178476*
X1457099Y178490*
X1457148Y178503*
X1457197Y178517*
X1457246Y178531*
X1457295Y178545*
X1457343Y178559*
X1457392Y178574*
X1457441Y178588*
X1457490Y178603*
X1457539Y178617*
X1457587Y178632*
X1457636Y178647*
X1457685Y178663*
X1457733Y178678*
X1457782Y178693*
X1457830Y178709*
X1457879Y178725*
X1457927Y178741*
X1457976Y178757*
X1458024Y178773*
X1458072Y178789*
X1458120Y178806*
X1458168Y178823*
X1458217Y178839*
X1458265Y178856*
X1458313Y178873*
X1458360Y178891*
X1458408Y178908*
X1458456Y178926*
X1458504Y178943*
X1458552Y178961*
X1458599Y178979*
X1458647Y178997*
X1458694Y179016*
X1458742Y179034*
X1458789Y179053*
X1458837Y179072*
X1458884Y179091*
X1458931Y179110*
X1458978Y179129*
X1459025Y179148*
X1459025D02*
X1459073Y179168D01*
X1459119Y179188*
X1459166Y179208*
X1459213Y179228*
X1459260Y179248*
X1459306Y179269*
X1459353Y179289*
X1459400Y179310*
X1459446Y179330*
X1459493Y179352*
X1459539Y179373*
X1459585Y179394*
X1459631Y179416*
X1459677Y179437*
X1459723Y179459*
X1459769Y179481*
X1459815Y179504*
X1459861Y179526*
X1459906Y179548*
X1459906D02*
X1459952Y179571D01*
X1459998Y179594*
X1460043Y179617*
X1460089Y179640*
X1460134Y179663*
X1460179Y179687*
X1460224Y179711*
X1460269Y179735*
X1460314Y179759*
X1460359Y179783*
X1460404Y179807*
X1460448Y179832*
X1460493Y179856*
X1460537Y179882*
X1460582Y179906*
X1460626Y179932*
X1460670Y179957*
X1460714Y179983*
X1460758Y180008*
X1460802Y180034*
X1460846Y180060*
X1460889Y180087*
X1460933Y180113*
X1460976Y180140*
X1461020Y180167*
X1461063Y180193*
X1461106Y180221*
X1461149Y180248*
X1461192Y180275*
X1461235Y180303*
X1461278Y180331*
X1461320Y180359*
X1461363Y180387*
X1461405Y180415*
X1461447Y180443*
X1461489Y180472*
X1461532Y180501*
X1461573Y180530*
X1461615Y180559*
X1461657Y180589*
X1461698Y180618*
X1461740Y180648*
X1461781Y180678*
X1461822Y180708*
X1461863Y180738*
X1461904Y180768*
X1461945Y180799*
X1461986Y180830*
X1462026Y180860*
X1462067Y180891*
X1462107Y180923*
X1462147Y180954*
X1462187Y180986*
X1462227Y181017*
X1462267Y181049*
X1462306Y181082*
X1462345Y181114*
X1462385Y181146*
X1462424Y181179*
X1462463Y181211*
X1462502Y181244*
X1462541Y181277*
X1462579Y181311*
X1462618Y181344*
X1462656Y181378*
X1462694Y181411*
X1462732Y181445*
X1462770Y181480*
X1462808Y181514*
X1462845Y181548*
X1462883Y181583*
X1462920Y181617*
X1462957Y181652*
X1462994Y181687*
X1463031Y181723*
X1463067Y181758*
X1463104Y181794*
X1463140Y181829*
X1463176Y181865*
X1463213Y181901*
X1463249Y181937*
X1463284Y181974*
X1463320Y182010*
X1463355Y182047*
X1463390Y182084*
X1463425Y182121*
X1463460Y182158*
X1463495Y182195*
X1463530Y182233*
X1463564Y182270*
X1463599Y182308*
X1463632Y182346*
X1463667Y182384*
X1463700Y182422*
X1463734Y182460*
X1463767Y182498*
X1463767D02*
X1463801Y182537D01*
X1463834Y182576*
X1463867Y182615*
X1463900Y182654*
X1463932Y182693*
X1463965Y182732*
X1463997Y182771*
X1464029Y182811*
X1464062Y182850*
X1464093Y182890*
X1464125Y182930*
X1464156Y182970*
X1464188Y183010*
X1464219Y183050*
X1464250Y183091*
X1464281Y183132*
X1464312Y183172*
X1464342Y183213*
X1464373Y183254*
X1464403Y183295*
X1464433Y183336*
X1464463Y183377*
X1464493Y183419*
X1464522Y183460*
X1464551Y183502*
X1464581Y183543*
X1464610Y183585*
X1464639Y183627*
X1464667Y183669*
X1464696Y183711*
X1464725Y183754*
X1464725D02*
X1464753Y183796D01*
X1464781Y183839*
X1464809Y183881*
X1464837Y183924*
X1464865Y183967*
X1464892Y184010*
X1464919Y184052*
X1464947Y184095*
X1464974Y184139*
X1465000Y184182*
X1465027Y184225*
X1465054Y184269*
X1465080Y184312*
X1465106Y184356*
X1465133Y184400*
X1465158Y184443*
X1465184Y184487*
X1465210Y184532*
X1465236Y184575*
X1465261Y184620*
X1465286Y184664*
X1465311Y184708*
X1465336Y184753*
X1465361Y184797*
X1465386Y184842*
X1465410Y184886*
X1465434Y184931*
X1465458Y184976*
X1465482Y185021*
X1465506Y185066*
X1465530Y185111*
X1465553Y185156*
X1465577Y185201*
X1465600Y185247*
X1465623Y185292*
X1465646Y185337*
X1465669Y185383*
X1465692Y185428*
X1465714Y185474*
X1465737Y185520*
X1465759Y185566*
X1465781Y185611*
X1465803Y185658*
X1465825Y185703*
X1465847Y185749*
X1465868Y185796*
X1465889Y185842*
X1465911Y185888*
X1465932Y185934*
X1465953Y185981*
X1465974Y186027*
X1465995Y186074*
X1466015Y186120*
X1466036Y186167*
X1466056Y186213*
X1466076Y186260*
X1466097Y186307*
X1466117Y186354*
X1466136Y186401*
X1466156Y186448*
X1466176Y186495*
X1466195Y186542*
X1466214Y186589*
X1466234Y186636*
X1466252Y186684*
X1466271Y186731*
X1466290Y186778*
X1466309Y186825*
X1466327Y186873*
X1466346Y186920*
X1466364Y186968*
X1466382Y187015*
X1466400Y187063*
X1466418Y187111*
X1466436Y187158*
X1466454Y187206*
X1466471Y187254*
X1466488Y187302*
X1466506Y187350*
X1466523Y187397*
X1466540Y187445*
X1466557Y187493*
X1466574Y187541*
X1466590Y187589*
X1466607Y187638*
X1466623Y187686*
X1466640Y187734*
X1466656Y187782*
X1466672Y187831*
X1466688Y187879*
X1466704Y187928*
X1466720Y187976*
X1466736Y188024*
X1466751Y188073*
X1466766Y188121*
X1466782Y188170*
X1466797Y188219*
X1466812Y188267*
X1466827Y188316*
X1466842Y188365*
X1466857Y188413*
X1466871Y188462*
X1466886Y188511*
X1466900Y188560*
X1466915Y188609*
X1466929Y188658*
X1466943Y188707*
X1466957Y188756*
X1466971Y188805*
X1466985Y188854*
X1466999Y188903*
X1467012Y188952*
X1467025Y189001*
X1467039Y189050*
X1467052Y189100*
X1467065Y189149*
X1467078Y189198*
X1467091Y189248*
X1467104Y189297*
X1467116Y189346*
X1467129Y189396*
X1467141Y189445*
X1467154Y189495*
X1467166Y189544*
X1467178Y189594*
X1467190Y189643*
X1467202Y189693*
X1467214Y189742*
X1467226Y189792*
X1467237Y189842*
X1467249Y189891*
X1467260Y189941*
X1467271Y189991*
X1467282Y190041*
X1467293Y190090*
X1467304Y190140*
X1467315Y190190*
X1467326Y190240*
X1467336Y190290*
X1467347Y190339*
X1467357Y190389*
X1467367Y190439*
X1467377Y190489*
X1467387Y190539*
X1467397Y190589*
X1467407Y190639*
X1467417Y190689*
X1467426Y190739*
X1467436Y190790*
X1467445Y190840*
X1467454Y190890*
X1467463Y190940*
X1467473Y190990*
X1467482Y191040*
X1467490Y191091*
X1467499Y191141*
X1467508Y191191*
X1467516Y191241*
X1467525Y191291*
X1467525D02*
X1467533Y191342D01*
X1467541Y191392*
X1467549Y191443*
X1467557Y191493*
X1467564Y191543*
X1467572Y191593*
X1467580Y191644*
X1467587Y191694*
X1467595Y191745*
X1467602Y191795*
X1467609Y191845*
X1467616Y191896*
X1467623Y191946*
X1467630Y191997*
X1467636Y192047*
X1467643Y192098*
X1467649Y192148*
X1467656Y192199*
X1467662Y192249*
X1467668Y192300*
X1467674Y192350*
X1467680Y192401*
X1467686Y192451*
X1467692Y192502*
X1467697Y192552*
X1467703Y192603*
X1467709Y192654*
X1467714Y192704*
X1467719Y192755*
X1467725Y192806*
X1467725D02*
X1467730Y192856D01*
X1467735Y192907*
X1467740Y192958*
X1467745Y193008*
X1467749Y193059*
X1467754Y193110*
X1467759Y193160*
X1467763Y193211*
X1467768Y193261*
X1467773Y193312*
X1467777Y193363*
X1467781Y193414*
X1467786Y193464*
X1467789Y193515*
X1467794Y193566*
X1467798Y193617*
X1467802Y193667*
X1467806Y193718*
X1467810Y193769*
X1467813Y193820*
X1467817Y193871*
X1467821Y193921*
X1467825Y193972*
X1467825D02*
X1467828Y194023D01*
X1467832Y194074*
X1467835Y194124*
X1467838Y194175*
X1467842Y194226*
X1467845Y194277*
X1467849Y194328*
X1467852Y194378*
X1467855Y194429*
X1467858Y194480*
X1467862Y194531*
X1467865Y194582*
X1467867Y194633*
X1467871Y194684*
X1467874Y194734*
X1467876Y194786*
X1467880Y194836*
X1467882Y194887*
X1467886Y194938*
X1467888Y194989*
X1467891Y195040*
X1467894Y195091*
X1467897Y195141*
X1467900Y195192*
X1467902Y195243*
X1467905Y195294*
X1467908Y195345*
X1467911Y195396*
X1467913Y195447*
X1467916Y195498*
X1467919Y195548*
X1467919D02*
X1467922Y195599D01*
X1467925Y195650*
X1467925D02*
X1467927Y195701D01*
X1467930Y195752*
X1293682Y355512D02*
G03X1308357Y368655I0J14764D01*
G01X1252331Y352384D02*
G03X1236142Y323771I91185J-70476D01*
G01X1328076Y177649D02*
X1448309D01*
X1308425Y196168D02*
X1308427Y196119D01*
X1308428Y196070*
X1308430Y196021*
X1308432Y195972*
X1308433Y195923*
X1308434Y195874*
X1308436Y195824*
X1308437Y195775*
X1308439Y195726*
X1308441Y195677*
X1308442Y195628*
X1308444Y195579*
X1308445Y195530*
X1308447Y195481*
X1308449Y195432*
X1308450Y195382*
X1308452Y195333*
X1308454Y195284*
X1308456Y195235*
X1308458Y195186*
X1308459Y195137*
X1308461Y195088*
X1308463Y195039*
X1308465Y194989*
X1308467Y194941*
X1308469Y194891*
X1308471Y194842*
X1308473Y194793*
X1308475Y194744*
X1308477Y194695*
X1308479Y194646*
X1308482Y194597*
X1308484Y194548*
X1308486Y194498*
X1308486D02*
X1308489Y194450D01*
X1308491Y194400*
X1308493Y194351*
X1308496Y194302*
X1308499Y194253*
X1308501Y194204*
X1308504Y194155*
X1308507Y194106*
X1308510Y194057*
X1308512Y194008*
X1308515Y193959*
X1308519Y193910*
X1308522Y193861*
X1308525Y193811*
X1308528Y193763*
X1308531Y193713*
X1308535Y193665*
X1308538Y193615*
X1308541Y193567*
X1308545Y193517*
X1308549Y193469*
X1308552Y193419*
X1308556Y193371*
X1308560Y193321*
X1308564Y193273*
X1308568Y193224*
X1308572Y193174*
X1308576Y193126*
X1308581Y193076*
X1308585Y193028*
X1308589Y192979*
X1308594Y192930*
X1308599Y192881*
X1308603Y192832*
X1308608Y192783*
X1308613Y192734*
X1308618Y192685*
X1308623Y192636*
X1308628Y192587*
X1308634Y192539*
X1308639Y192490*
X1308644Y192441*
X1308650Y192392*
X1308655Y192343*
X1308661Y192295*
X1308667Y192246*
X1308673Y192197*
X1308678Y192148*
X1308685Y192099*
X1308691Y192050*
X1308697Y192002*
X1308704Y191953*
X1308710Y191904*
X1308717Y191856*
X1308723Y191807*
X1308730Y191758*
X1308737Y191710*
X1308744Y191661*
X1308751Y191612*
X1308758Y191563*
X1308765Y191515*
X1308773Y191466*
X1308780Y191418*
X1308788Y191369*
X1308795Y191321*
X1308803Y191272*
X1308811Y191224*
X1308819Y191175*
X1308827Y191126*
X1308835Y191078*
X1308843Y191030*
X1308852Y190981*
X1308860Y190933*
X1308869Y190884*
X1308878Y190836*
X1308886Y190787*
X1308895Y190739*
X1308904Y190691*
X1308913Y190643*
X1308922Y190594*
X1308932Y190546*
X1308941Y190498*
X1308950Y190450*
X1308960Y190401*
X1308969Y190353*
X1308979Y190305*
X1308989Y190257*
X1308999Y190209*
X1309009Y190161*
X1309019Y190112*
X1309029Y190064*
X1309040Y190016*
X1309050Y189968*
X1309061Y189920*
X1309071Y189872*
X1309082Y189824*
X1309093Y189776*
X1309104Y189728*
X1309115Y189680*
X1309126Y189633*
X1309137Y189585*
X1309149Y189537*
X1309160Y189489*
X1309172Y189441*
X1309183Y189394*
X1309195Y189346*
X1309207Y189298*
X1309219Y189250*
X1309231Y189203*
X1309243Y189155*
X1309255Y189108*
X1309268Y189060*
X1309280Y189013*
X1309293Y188965*
X1309306Y188918*
X1309318Y188870*
X1309331Y188823*
X1309344Y188775*
X1309357Y188728*
X1309371Y188680*
X1309384Y188633*
X1309397Y188586*
X1309411Y188539*
X1309424Y188491*
X1309438Y188444*
X1309452Y188397*
X1309466Y188350*
X1309480Y188303*
X1309494Y188256*
X1309508Y188209*
X1309523Y188161*
X1309537Y188115*
X1309552Y188068*
X1309566Y188021*
X1309581Y187974*
X1309596Y187927*
X1309611Y187880*
X1309626Y187834*
X1309641Y187787*
X1309657Y187740*
X1309672Y187693*
X1309688Y187647*
X1309704Y187600*
X1309719Y187554*
X1309735Y187507*
X1309751Y187461*
X1309767Y187414*
X1309784Y187368*
X1309800Y187321*
X1309817Y187275*
X1309833Y187229*
X1309850Y187183*
X1309867Y187136*
X1309884Y187090*
X1309901Y187044*
X1309918Y186998*
X1309936Y186952*
X1309953Y186906*
X1309971Y186860*
X1309988Y186814*
X1310006Y186769*
X1310024Y186723*
X1310042Y186677*
X1310060Y186632*
X1310078Y186586*
X1310097Y186540*
X1310115Y186495*
X1310134Y186449*
X1310153Y186404*
X1310172Y186358*
X1310191Y186313*
X1310210Y186268*
X1310230Y186223*
X1310249Y186177*
X1310269Y186132*
X1310288Y186087*
X1310308Y186042*
X1310328Y185997*
X1310348Y185952*
X1310368Y185908*
X1310389Y185863*
X1310409Y185818*
X1310430Y185773*
X1310450Y185729*
X1310471Y185684*
X1310492Y185640*
X1310513Y185595*
X1310535Y185551*
X1310556Y185507*
X1310578Y185463*
X1310599Y185419*
X1310621Y185374*
X1310643Y185330*
X1310665Y185287*
X1310687Y185243*
X1310710Y185199*
X1310732Y185155*
X1310755Y185111*
X1310778Y185068*
X1310800Y185024*
X1310824Y184981*
X1310847Y184937*
X1310870Y184894*
X1310893Y184851*
X1310917Y184808*
X1310941Y184765*
X1310965Y184722*
X1310989Y184679*
X1311013Y184636*
X1311037Y184593*
X1311062Y184551*
X1311087Y184508*
X1311112Y184466*
X1311136Y184423*
X1311161Y184381*
X1311187Y184339*
X1311212Y184297*
X1311237Y184255*
X1311263Y184213*
X1311289Y184171*
X1311315Y184129*
X1311341Y184087*
X1311367Y184046*
X1311393Y184004*
X1311420Y183963*
X1311447Y183922*
X1311474Y183880*
X1311500Y183839*
X1311528Y183798*
X1311555Y183758*
X1311582Y183717*
X1311610Y183676*
X1311638Y183635*
X1311665Y183595*
X1311694Y183554*
X1311722Y183514*
X1311750Y183474*
X1311779Y183434*
X1311807Y183394*
X1311836Y183354*
X1311865Y183314*
X1311894Y183274*
X1311923Y183235*
X1311953Y183196*
X1311982Y183156*
X1312012Y183117*
X1312042Y183078*
X1312072Y183039*
X1312102Y183000*
X1312133Y182961*
X1312163Y182923*
X1312194Y182884*
X1312225Y182846*
X1312225D02*
X1312256Y182808D01*
X1312287Y182770*
X1312318Y182732*
X1312349Y182694*
X1312381Y182656*
X1312413Y182619*
X1312445Y182581*
X1312476Y182544*
X1312509Y182507*
X1312541Y182470*
X1312574Y182433*
X1312606Y182396*
X1312639Y182359*
X1312672Y182323*
X1312705Y182286*
X1312738Y182250*
X1312772Y182214*
X1312805Y182178*
X1312839Y182142*
X1312873Y182106*
X1312907Y182071*
X1312941Y182036*
X1312975Y182000*
X1313010Y181965*
X1313044Y181930*
X1313079Y181895*
X1313114Y181861*
X1313149Y181826*
X1313184Y181791*
X1313219Y181758*
X1313255Y181723*
X1313290Y181689*
X1313326Y181656*
X1313362Y181622*
X1313398Y181589*
X1313434Y181555*
X1313471Y181522*
X1313507Y181489*
X1313543Y181456*
X1313580Y181423*
X1313617Y181391*
X1313654Y181358*
X1313691Y181326*
X1313728Y181294*
X1313766Y181262*
X1313804Y181230*
X1313841Y181199*
X1313879Y181167*
X1313917Y181136*
X1313955Y181105*
X1313993Y181074*
X1314032Y181043*
X1314070Y181013*
X1314109Y180982*
X1314147Y180952*
X1314186Y180921*
X1314225Y180891*
X1314264Y180861*
X1314303Y180832*
X1314343Y180802*
X1314382Y180773*
X1314422Y180744*
X1314462Y180715*
X1314501Y180686*
X1314541Y180657*
X1314581Y180628*
X1314621Y180600*
X1314662Y180572*
X1314702Y180543*
X1314742Y180515*
X1314783Y180488*
X1314824Y180460*
X1314865Y180433*
X1314905Y180405*
X1314947Y180378*
X1314987Y180351*
X1315029Y180324*
X1315070Y180298*
X1315112Y180271*
X1315153Y180245*
X1315195Y180219*
X1315236Y180193*
X1315278Y180167*
X1315320Y180141*
X1315362Y180115*
X1315404Y180090*
X1315447Y180065*
X1315489Y180040*
X1315531Y180015*
X1315574Y179990*
X1315616Y179965*
X1315659Y179941*
X1315702Y179917*
X1315745Y179893*
X1315787Y179869*
X1315831Y179845*
X1315874Y179821*
X1315917Y179798*
X1315960Y179774*
X1316004Y179751*
X1316047Y179728*
X1316091Y179706*
X1316134Y179683*
X1316178Y179660*
X1316222Y179638*
X1316265Y179615*
X1316310Y179593*
X1316354Y179571*
X1316398Y179550*
X1316442Y179528*
X1316486Y179507*
X1316530Y179486*
X1316575Y179464*
X1316619Y179443*
X1316664Y179423*
X1316708Y179402*
X1316753Y179381*
X1316798Y179361*
X1316843Y179341*
X1316887Y179321*
X1316932Y179300*
X1316977Y179281*
X1317022Y179261*
X1317067Y179241*
X1317113Y179222*
X1317158Y179203*
X1317203Y179184*
X1317249Y179165*
X1317294Y179147*
X1317339Y179128*
X1317385Y179109*
X1317431Y179091*
X1317476Y179073*
X1317522Y179055*
X1317568Y179037*
X1317614Y179019*
X1317660Y179002*
X1317706Y178984*
X1317752Y178967*
X1317798Y178950*
X1317844Y178933*
X1317890Y178916*
X1317936Y178899*
X1317982Y178882*
X1318029Y178866*
X1318075Y178850*
X1318121Y178834*
X1318168Y178817*
X1318214Y178802*
X1318261Y178786*
X1318308Y178770*
X1318354Y178755*
X1318401Y178739*
X1318448Y178724*
X1318495Y178709*
X1318541Y178694*
X1318588Y178679*
X1318635Y178664*
X1318682Y178650*
X1318729Y178636*
X1318776Y178621*
X1318823Y178607*
X1318870Y178593*
X1318917Y178579*
X1318964Y178565*
X1319012Y178552*
X1319059Y178538*
X1319106Y178524*
X1319154Y178511*
X1319201Y178498*
X1319248Y178485*
X1319296Y178472*
X1319343Y178460*
X1319391Y178447*
X1319438Y178434*
X1319486Y178422*
X1319534Y178410*
X1319581Y178397*
X1319629Y178386*
X1319676Y178374*
X1319724Y178362*
X1319772Y178350*
X1319820Y178339*
X1319867Y178327*
X1319915Y178316*
X1319963Y178305*
X1320011Y178294*
X1320059Y178283*
X1320107Y178272*
X1320155Y178261*
X1320203Y178250*
X1320251Y178240*
X1320299Y178230*
X1320347Y178220*
X1320395Y178210*
X1320443Y178200*
X1320491Y178190*
X1320539Y178180*
X1320588Y178170*
X1320636Y178161*
X1320684Y178151*
X1320732Y178142*
X1320781Y178133*
X1320829Y178124*
X1320877Y178115*
X1320926Y178106*
X1320974Y178097*
X1321023Y178088*
X1321071Y178080*
X1321119Y178071*
X1321168Y178063*
X1321216Y178055*
X1321265Y178047*
X1321313Y178039*
X1321362Y178031*
X1321410Y178023*
X1321459Y178015*
X1321507Y178008*
X1321556Y178000*
X1321604Y177993*
X1321653Y177986*
X1321702Y177978*
X1321750Y177971*
X1321799Y177964*
X1321848Y177957*
X1321896Y177950*
X1321945Y177943*
X1321994Y177937*
X1322043Y177930*
X1322091Y177924*
X1322140Y177917*
X1322189Y177911*
X1322237Y177905*
X1322286Y177899*
X1322335Y177893*
X1322384Y177887*
X1322432Y177881*
X1322481Y177875*
X1322530Y177870*
X1322579Y177864*
X1322628Y177859*
X1322677Y177853*
X1322726Y177848*
X1322775Y177843*
X1322775D02*
X1322823Y177837D01*
X1322872Y177833*
X1322921Y177828*
X1322970Y177823*
X1323019Y177818*
X1323068Y177813*
X1323117Y177809*
X1323166Y177804*
X1323215Y177800*
X1323264Y177795*
X1323313Y177791*
X1323362Y177787*
X1323411Y177783*
X1323460Y177779*
X1323509Y177775*
X1323558Y177771*
X1323606Y177767*
X1323656Y177763*
X1323704Y177760*
X1323754Y177756*
X1323802Y177753*
X1323852Y177749*
X1323901Y177746*
X1323950Y177743*
X1323999Y177739*
X1324048Y177737*
X1324097Y177734*
X1324146Y177731*
X1324195Y177728*
X1324244Y177725*
X1324293Y177722*
X1324342Y177720*
X1324391Y177717*
X1324440Y177715*
X1324489Y177712*
X1324539Y177710*
X1324587Y177708*
X1324637Y177706*
X1324686Y177703*
X1324735Y177701*
X1324784Y177699*
X1324833Y177697*
X1324882Y177695*
X1324931Y177693*
X1324980Y177692*
X1325030Y177690*
X1325079Y177688*
X1325128Y177687*
X1325177Y177685*
X1325226Y177684*
X1325275Y177682*
X1325324Y177681*
X1325373Y177680*
X1325423Y177678*
X1325472Y177677*
X1325521Y177676*
X1325570Y177674*
X1325619Y177673*
X1325668Y177672*
X1325717Y177671*
X1325766Y177670*
X1325815Y177669*
X1325865Y177668*
X1325914Y177667*
X1325963*
X1326012Y177665*
X1326061*
X1326110Y177664*
X1326160Y177663*
X1326209*
X1326258Y177662*
X1326307Y177661*
X1326356Y177660*
X1326405*
X1326454Y177659*
X1326503*
X1326552Y177658*
X1326602*
X1326651Y177657*
X1326700*
X1326749Y177656*
X1326798*
X1326847Y177655*
X1326897*
X1326946Y177654*
X1326995*
X1327044*
X1327093*
X1327142Y177653*
X1327191*
X1327241Y177652*
X1327289*
X1327339*
X1327388*
X1327437*
X1327486Y177651*
X1327536*
X1327584*
X1327634*
X1327683Y177650*
X1327732*
X1327781*
X1327830*
X1327879*
X1327928*
X1327978Y177649*
X1328027*
X1328076*
X1235612Y242887D02*
Y242872D01*
Y242856*
Y242841*
Y242826*
Y242810*
Y242795*
Y242780*
Y242764*
Y242749*
Y242734*
Y242718*
Y242703*
Y242687*
X1235616Y242672*
Y242656*
Y242641*
Y242626*
Y242610*
Y242595*
Y242580*
Y242564*
Y242549*
Y242534*
Y242518*
Y242503*
Y242487*
Y242472*
X1235620Y242457*
Y242441*
Y242426*
Y242411*
Y242395*
Y242380*
Y242365*
Y242349*
X1235624Y242334*
Y242319*
Y242303*
Y242288*
Y242273*
Y242257*
X1235628Y242242*
Y242226*
Y242211*
Y242196*
Y242180*
X1235632Y242165*
Y242150*
Y242134*
Y242119*
Y242104*
X1235636Y242089*
Y242073*
Y242058*
X1235639Y242043*
Y242027*
Y242012*
Y241997*
X1235643Y241981*
Y241966*
Y241951*
X1235647Y241936*
Y241920*
Y241905*
X1235651Y241889*
Y241874*
X1235655Y241859*
Y241844*
Y241828*
X1235659Y241813*
Y241798*
X1235663Y241783*
Y241767*
X1235667Y241752*
Y241737*
X1235671Y241722*
Y241706*
X1235675Y241691*
Y241676*
X1235679Y241661*
Y241646*
X1235683Y241630*
Y241615*
X1235687Y241600*
X1235691Y241585*
Y241569*
X1235695Y241554*
X1235699Y241539*
Y241524*
X1235702Y241509*
Y241494*
X1235706Y241478*
X1235710Y241463*
X1235714Y241448*
Y241433*
X1235718Y241418*
X1235722Y241403*
Y241388*
X1235726Y241373*
X1235730Y241358*
X1235734Y241343*
X1235738Y241328*
Y241312*
X1235742Y241297*
X1235746Y241282*
X1235750Y241267*
X1235754Y241252*
Y241237*
X1235758Y241223*
X1235762Y241208*
X1235765Y241192*
X1235769Y241177*
X1235773Y241163*
X1235777Y241148*
X1235781Y241133*
X1235785Y241118*
X1235789Y241103*
X1235793Y241088*
X1235797Y241073*
X1235801Y241058*
X1235805Y241043*
X1235809Y241028*
X1235813Y241013*
X1235817Y240999*
X1235821Y240984*
X1235825Y240969*
X1235825D02*
X1235828Y240954D01*
X1235832Y240940*
X1235836Y240925*
X1235840Y240910*
X1235844Y240895*
X1235848Y240881*
X1235852Y240866*
X1235856Y240851*
X1235864Y240837*
X1235868Y240822*
X1235872Y240807*
X1235876Y240793*
X1235880Y240778*
X1235884Y240763*
X1235891Y240749*
X1235895Y240734*
X1235899Y240719*
X1235903Y240705*
X1235907Y240690*
X1235915Y240676*
X1235919Y240661*
X1235923Y240647*
X1235927Y240632*
X1235935Y240617*
X1235939Y240603*
X1235943Y240589*
X1235947Y240574*
X1235954Y240560*
X1235958Y240545*
X1235962Y240530*
X1235966Y240516*
X1235974Y240502*
X1235978Y240487*
X1235982Y240473*
X1235990Y240458*
X1235994Y240443*
X1235998Y240429*
X1236006Y240415*
X1236010Y240400*
X1236013Y240386*
X1236021Y240371*
X1236025Y240357*
X1236029Y240343*
X1236037Y240328*
X1236041Y240313*
X1236045Y240299*
X1236053Y240285*
X1236057Y240271*
X1236065Y240256*
X1236069Y240241*
X1236073Y240227*
X1236080Y240213*
X1236084Y240198*
X1236084D02*
X1236088Y240184D01*
X1236096Y240170*
X1236100Y240155*
X1236108Y240141*
X1236112Y240126*
X1236116Y240112*
X1236124Y240098*
X1236128Y240083*
X1236132Y240069*
X1236139Y240054*
X1236143Y240040*
X1236151Y240026*
X1258616Y355512D02*
X1258580Y355511D01*
X1258549*
X1258517*
X1258482*
X1258450*
X1258419Y355510*
X1258384*
X1258352*
X1258321*
X1258289Y355509*
X1258254*
X1258222*
X1258191Y355508*
X1258155*
X1258124Y355507*
X1258092*
X1258057Y355506*
X1258025*
X1257994Y355505*
X1257958Y355504*
X1257927Y355503*
X1257895Y355502*
X1257864*
X1257828Y355500*
X1257797*
X1257765Y355498*
X1257765D02*
X1257730Y355497D01*
X1257699Y355496*
X1257667Y355495*
X1257636Y355493*
X1257600Y355492*
X1257569Y355490*
X1257537Y355489*
X1257502Y355487*
X1257470Y355485*
X1257439Y355483*
X1257407Y355481*
X1257372Y355479*
X1257340Y355477*
X1257309Y355474*
X1257273Y355472*
X1257242Y355469*
X1257210Y355467*
X1257179Y355464*
X1257143Y355461*
X1257112Y355458*
X1257080Y355455*
X1257049Y355452*
X1257013Y355448*
X1256982Y355445*
X1256950Y355441*
X1256919Y355437*
X1256884Y355433*
X1256852Y355429*
X1256821Y355424*
X1256789Y355420*
X1256754Y355416*
X1256722Y355411*
X1256691Y355406*
X1256659Y355401*
X1256624Y355396*
X1256592Y355391*
X1256561Y355385*
X1256529Y355379*
X1256498Y355373*
X1256462Y355367*
X1256431Y355361*
X1256399Y355355*
X1256368Y355348*
X1256368D02*
X1256336Y355342D01*
X1256301Y355335*
X1256269Y355328*
X1256238Y355321*
X1256206Y355314*
X1256175Y355306*
X1256143Y355298*
X1256143D02*
X1256112Y355291D01*
X1256080Y355283*
X1256049Y355274*
X1256013Y355266*
X1255982Y355258*
X1255950Y355249*
X1255919Y355240*
X1255887Y355231*
X1255856Y355222*
X1255825Y355212*
X1255825D02*
X1255793Y355203D01*
X1255762Y355193*
X1255730Y355183*
X1255702Y355173*
X1255671Y355163*
X1255639Y355152*
X1255608Y355141*
X1255576Y355130*
X1255545Y355119*
X1255513Y355108*
X1255486Y355097*
X1255454Y355085*
X1255423Y355073*
X1255391Y355061*
X1255364Y355049*
X1255332Y355036*
X1255301Y355024*
X1255273Y355011*
X1255242Y354998*
X1255210Y354985*
X1255183Y354971*
X1255151Y354958*
X1255124Y354944*
X1255092Y354930*
X1255065Y354916*
X1255033Y354901*
X1255006Y354887*
X1254974Y354872*
X1254947Y354857*
X1254919Y354841*
X1254887Y354826*
X1254860Y354810*
X1254832Y354795*
X1254801Y354778*
X1254773Y354762*
X1254746Y354746*
X1254718Y354730*
X1254691Y354713*
X1254659Y354696*
X1254632Y354679*
X1254604Y354661*
X1254576Y354644*
X1254549Y354626*
X1254521Y354608*
X1254494Y354591*
X1254466Y354573*
X1254439Y354554*
X1254415Y354536*
X1254387Y354517*
X1254360Y354498*
X1254332Y354479*
X1254305Y354460*
X1254277Y354441*
X1254254Y354421*
X1254226Y354402*
X1254199Y354382*
X1254175Y354362*
X1254147Y354342*
X1254124Y354322*
X1254096Y354302*
X1254069Y354281*
X1254045Y354261*
X1254017Y354240*
X1253994Y354219*
X1253970Y354198*
X1253943Y354177*
X1253919Y354156*
X1253895Y354134*
X1253868Y354113*
X1253844Y354091*
X1253821Y354069*
X1253793Y354048*
X1253769Y354026*
X1253746Y354004*
X1253722Y353981*
X1253699Y353959*
X1253675Y353937*
X1253651Y353914*
X1253628Y353891*
X1253604Y353869*
X1253580Y353846*
X1253557Y353823*
X1253533Y353800*
X1253510Y353777*
X1253486Y353754*
X1253462Y353730*
X1253443Y353707*
X1253419Y353683*
X1253395Y353660*
X1253372Y353636*
X1253352Y353612*
X1253328Y353588*
X1253305Y353564*
X1253285Y353540*
X1253262Y353516*
X1253242Y353492*
X1253218Y353468*
X1253195Y353443*
X1253175Y353419*
X1253151Y353395*
X1253132Y353370*
X1253108Y353345*
X1253088Y353321*
X1253069Y353296*
X1253045Y353271*
X1253025Y353247*
X1253002Y353222*
X1252982Y353197*
X1252962Y353172*
X1252939Y353147*
X1252919Y353121*
X1252899Y353097*
X1252880Y353071*
X1252856Y353046*
X1252836Y353021*
X1252817Y352995*
X1252793Y352970*
X1252773Y352945*
X1252754Y352919*
X1252734Y352894*
X1252714Y352868*
X1252691Y352843*
X1252671Y352817*
X1252651Y352792*
X1252632Y352766*
X1252612Y352741*
X1252592Y352715*
X1252569Y352689*
X1252549Y352663*
X1252529Y352638*
X1252510Y352612*
X1252490Y352587*
X1252470Y352561*
X1252450Y352535*
X1252427Y352510*
X1252407Y352484*
X1252387Y352458*
X1296635Y207280D02*
X1259417D01*
X1258614Y355512D02*
X1293682D01*
X1236151Y323790D02*
X1236143Y323776D01*
X1236139Y323761*
X1236132Y323747*
X1236128Y323733*
X1236124Y323718*
X1236116Y323704*
X1236112Y323689*
X1236108Y323675*
X1236100Y323661*
X1236096Y323646*
X1236088Y323632*
X1236084Y323617*
X1236080Y323603*
X1236073Y323589*
X1236069Y323574*
X1236065Y323560*
X1236057Y323545*
X1236053Y323531*
X1236049Y323517*
X1236041Y323502*
X1236037Y323488*
X1236029Y323473*
X1236025Y323459*
X1236021Y323445*
X1236013Y323430*
X1236010Y323415*
X1236006Y323401*
X1235998Y323387*
X1235994Y323372*
X1235990Y323358*
X1235986Y323343*
X1235978Y323329*
X1235974Y323314*
X1235970Y323300*
X1235962Y323286*
X1235958Y323271*
X1235954Y323256*
X1235947Y323242*
X1235943Y323227*
X1235939Y323213*
X1235935Y323198*
X1235927Y323184*
X1235923Y323169*
X1235919Y323154*
X1235915Y323140*
X1235907Y323125*
X1235903Y323111*
X1235899Y323096*
X1235895Y323082*
X1235891Y323067*
X1235884Y323052*
X1235880Y323038*
X1235876Y323023*
X1235872Y323008*
X1235868Y322994*
X1235864Y322979*
X1235860Y322964*
X1235852Y322950*
X1235848Y322935*
X1235844Y322920*
X1235840Y322906*
X1235836Y322891*
X1235832Y322876*
X1235828Y322861*
X1235825Y322847*
X1235825D02*
X1235821Y322832D01*
X1235817Y322817*
X1235813Y322802*
X1235809Y322787*
X1235805Y322773*
X1235801Y322758*
X1235797Y322743*
X1235793Y322728*
X1235789Y322713*
X1235785Y322698*
X1235781Y322683*
X1235777Y322668*
X1235773Y322653*
X1235769Y322638*
X1235765Y322623*
X1235762Y322608*
X1235758Y322593*
Y322578*
X1235754Y322563*
X1235750Y322548*
X1235750D02*
X1235746Y322534D01*
X1235742Y322518*
X1235738Y322503*
Y322488*
X1235734Y322473*
X1235730Y322458*
X1235726Y322443*
X1235722Y322428*
Y322413*
X1235718Y322398*
X1235714Y322383*
Y322367*
X1235710Y322352*
X1235706Y322337*
X1235702Y322322*
Y322307*
X1235699Y322292*
X1235695Y322276*
Y322261*
X1235691Y322246*
Y322231*
X1235687Y322216*
X1235683Y322201*
Y322186*
X1235679Y322170*
Y322155*
X1235675Y322140*
Y322124*
X1235671Y322110*
Y322094*
X1235667Y322079*
Y322064*
X1235663Y322048*
X1235663D02*
Y322033D01*
X1235659Y322018*
Y322003*
X1235655Y321987*
Y321972*
X1235651Y321957*
Y321941*
Y321926*
X1235647Y321911*
Y321896*
Y321880*
X1235643Y321865*
Y321850*
Y321835*
X1235639Y321819*
Y321804*
Y321789*
X1235636Y321773*
Y321758*
Y321743*
Y321727*
X1235632Y321712*
Y321697*
Y321682*
Y321666*
X1235628Y321651*
Y321636*
Y321620*
Y321605*
Y321589*
X1235624Y321574*
Y321559*
Y321543*
Y321528*
Y321513*
Y321497*
X1235620Y321482*
Y321467*
Y321451*
Y321436*
Y321421*
Y321405*
Y321390*
Y321374*
X1235616Y321359*
Y321344*
Y321328*
Y321313*
Y321298*
Y321282*
Y321267*
Y321252*
Y321236*
Y321221*
Y321206*
Y321190*
Y321175*
Y321160*
X1235612Y321144*
Y321128*
Y321113*
Y321098*
Y321082*
Y321067*
Y321052*
Y321036*
Y321021*
Y321006*
Y320990*
Y320975*
Y320960*
Y320944*
Y320929*
X1253250Y210258D02*
X1253269Y210234D01*
X1253289Y210208*
X1253309Y210183*
X1253332Y210158*
X1253352Y210133*
X1253372Y210108*
X1253391Y210083*
X1253411Y210058*
X1253431Y210033*
X1253454Y210008*
X1253474Y209982*
X1253494Y209958*
X1253513Y209932*
X1253533Y209908*
X1253553Y209883*
X1253576Y209858*
X1253596Y209833*
X1253616Y209808*
X1253636Y209783*
X1253655Y209758*
X1253679Y209734*
X1253699Y209709*
X1253718Y209684*
X1253742Y209660*
X1253762Y209635*
X1253781Y209610*
X1253801Y209586*
X1253825Y209561*
X1253825D02*
X1253844Y209537D01*
X1253864Y209513*
X1253887Y209488*
X1253907Y209464*
X1253931Y209440*
X1253950Y209416*
X1253974Y209392*
X1253994Y209368*
X1254013Y209344*
X1254037Y209320*
X1254057Y209296*
X1254080Y209273*
X1254104Y209248*
X1254104D02*
X1254124Y209225D01*
X1254147Y209202*
X1254167Y209178*
X1254191Y209155*
X1254214Y209132*
X1254234Y209108*
X1254258Y209085*
X1254281Y209062*
X1254301Y209039*
X1254325Y209016*
X1254325D02*
X1254348Y208993D01*
X1254372Y208971*
X1254395Y208948*
X1254419Y208926*
X1254443Y208903*
X1254462Y208881*
X1254486Y208859*
X1254510Y208837*
X1254533Y208815*
X1254557Y208793*
X1254584Y208771*
X1254608Y208749*
X1254632Y208728*
X1254655Y208706*
X1254679Y208685*
X1254702Y208664*
X1254730Y208643*
X1254754Y208622*
X1254777Y208601*
X1254805Y208580*
X1254828Y208560*
X1254852Y208539*
X1254880Y208519*
X1254903Y208499*
X1254931Y208479*
X1254954Y208459*
X1254982Y208439*
X1255006Y208419*
X1255033Y208400*
X1255057Y208380*
X1255084Y208361*
X1255108Y208342*
X1255136Y208323*
X1255163Y208304*
X1255191Y208286*
X1255214Y208267*
X1255242Y208249*
X1255269Y208231*
X1255297Y208213*
X1255325Y208195*
X1255325D02*
X1255348Y208177D01*
X1255376Y208160*
X1255403Y208142*
X1255431Y208125*
X1255458Y208108*
X1255486Y208091*
X1255513Y208074*
X1255541Y208058*
X1255569Y208042*
X1255600Y208026*
X1255628Y208010*
X1255655Y207994*
X1255683Y207978*
X1255710Y207963*
X1255738Y207948*
X1255769Y207933*
X1255797Y207918*
X1255825Y207903*
X1255825D02*
X1255856Y207889D01*
X1255884Y207874*
X1255911Y207861*
X1255943Y207847*
X1255970Y207833*
X1256002Y207820*
X1256029Y207806*
X1256061Y207793*
X1256088Y207780*
X1256120Y207768*
X1256147Y207755*
X1256179Y207743*
X1256206Y207731*
X1256238Y207719*
X1256269Y207707*
X1256297Y207696*
X1256328Y207684*
X1256360Y207673*
X1256391Y207662*
X1256419Y207651*
X1256450Y207641*
X1256482Y207630*
X1256513Y207620*
X1256541Y207610*
X1256573Y207600*
X1256604Y207591*
X1256636Y207581*
X1256667Y207572*
X1256699Y207562*
X1256730Y207553*
X1256762Y207545*
X1256789Y207536*
X1256821Y207528*
X1256852Y207519*
X1256884Y207511*
X1256915Y207503*
X1256947Y207495*
X1256978Y207487*
X1257010Y207480*
X1257041Y207473*
X1257073Y207466*
X1257104Y207459*
X1257136Y207452*
X1257167Y207445*
X1257202Y207439*
X1257234Y207432*
X1257265Y207426*
X1257297Y207421*
X1257328Y207415*
X1257360Y207409*
X1257391Y207403*
X1257423Y207398*
X1257454Y207393*
X1257486Y207388*
X1257517Y207383*
X1257553Y207378*
X1257584Y207373*
X1257616Y207369*
X1257647Y207365*
X1257679Y207361*
X1257710Y207356*
X1257742Y207353*
X1257777Y207349*
X1257809Y207345*
X1257840Y207342*
X1257872Y207339*
X1257903Y207336*
X1257935Y207332*
X1257966Y207329*
X1258002Y207326*
X1258033Y207324*
X1258065Y207321*
X1258096Y207319*
X1258128Y207316*
X1258159Y207314*
X1258195Y207312*
X1258226Y207310*
X1258258Y207308*
X1258289Y207306*
X1258321Y207304*
X1258352Y207302*
X1258387Y207301*
X1258419Y207299*
X1258450Y207298*
X1258482Y207297*
X1258513Y207295*
X1258545Y207294*
X1258580Y207293*
X1258612Y207292*
X1258643Y207291*
X1258675Y207290*
X1258706Y207289*
X1258742Y207288*
X1258773Y207287*
X1258805*
X1258836Y207286*
X1258868*
X1258899Y207285*
X1258935Y207284*
X1258966*
X1258998*
X1259029Y207283*
X1259061*
X1259096Y207282*
X1259128*
X1259159*
X1259191Y207281*
X1259222*
X1259258*
X1259289*
X1259321Y207280*
X1259352*
X1259384*
X1259419*
X1467910Y367532D02*
X1467909Y367582D01*
X1467908Y367631*
X1467907Y367680*
X1467906Y367730*
X1467905Y367779*
X1467904Y367828*
X1467902Y367878*
X1467901Y367927*
X1467900Y367976*
X1467899Y368026*
X1467898Y368075*
X1467897Y368124*
X1467895Y368174*
X1467894Y368223*
X1467893Y368273*
X1467891Y368322*
X1467890Y368371*
X1467889Y368421*
X1467887Y368470*
X1467886Y368519*
X1467885Y368569*
X1467883Y368618*
X1467882Y368667*
X1467880Y368717*
X1467878Y368766*
X1467877Y368815*
X1467875Y368865*
X1467874Y368914*
X1467872Y368963*
X1467870Y369013*
X1467868Y369062*
X1467866Y369111*
X1467864Y369161*
X1467862Y369210*
X1467860Y369259*
X1467858Y369309*
X1467856Y369358*
X1467854Y369407*
X1467852Y369456*
X1467849Y369506*
X1467847Y369555*
X1467845Y369604*
X1467842Y369654*
X1467839Y369703*
X1467837Y369752*
X1467834Y369802*
X1467832Y369851*
X1467829Y369900*
X1467826Y369950*
X1467823Y369999*
X1467820Y370048*
X1467817Y370097*
X1467813Y370147*
X1467810Y370196*
X1467807Y370245*
X1467804Y370295*
X1467800Y370344*
X1467797Y370393*
X1467793Y370442*
X1467789Y370491*
X1467785Y370541*
X1467781Y370590*
X1467777Y370639*
X1467773Y370688*
X1467769Y370737*
X1467765Y370787*
X1467761Y370836*
X1467756Y370885*
X1467752Y370934*
X1467747Y370983*
X1467743Y371032*
X1467738Y371082*
X1467733Y371131*
X1467728Y371180*
X1467723Y371229*
X1467718Y371278*
X1467713Y371327*
X1467707Y371376*
X1467702Y371425*
X1467696Y371474*
X1467691Y371523*
X1467685Y371573*
X1467679Y371621*
X1467673Y371671*
X1467667Y371719*
X1467661Y371768*
X1467655Y371817*
X1467649Y371866*
X1467642Y371915*
X1467636Y371964*
X1467629Y372013*
X1467622Y372062*
X1467615Y372111*
X1467608Y372160*
X1467601Y372209*
X1467594Y372258*
X1467587Y372306*
X1467580Y372355*
X1467572Y372404*
X1467565Y372453*
X1467557Y372502*
X1467549Y372550*
X1467541Y372599*
X1467534Y372648*
X1467525Y372697*
X1467517Y372745*
X1467509Y372794*
X1467501Y372843*
X1467492Y372891*
X1467484Y372940*
X1467475Y372989*
X1467466Y373037*
X1467458Y373086*
X1467449Y373134*
X1467439Y373183*
X1467430Y373231*
X1467421Y373280*
X1467412Y373328*
X1467402Y373377*
X1467393Y373425*
X1467383Y373474*
X1467374Y373522*
X1467364Y373571*
X1467354Y373619*
X1467344Y373667*
X1467334Y373715*
X1467323Y373764*
X1467313Y373812*
X1467302Y373860*
X1467292Y373908*
X1467281Y373957*
X1467271Y374005*
X1467260Y374053*
X1467249Y374101*
X1467237Y374149*
X1467226Y374197*
X1467215Y374245*
X1467204Y374293*
X1467192Y374341*
X1467181Y374389*
X1467169Y374437*
X1467157Y374486*
X1467145Y374534*
X1467134Y374581*
X1467121Y374629*
X1467109Y374677*
X1467097Y374725*
X1467084Y374773*
X1467072Y374820*
X1467059Y374868*
X1467047Y374916*
X1467034Y374963*
X1467021Y375011*
X1467008Y375059*
X1466995Y375106*
X1466981Y375154*
X1466968Y375201*
X1466954Y375249*
X1466941Y375297*
X1466927Y375344*
X1466913Y375391*
X1466900Y375439*
X1466886Y375486*
X1466871Y375533*
X1466857Y375581*
X1466843Y375628*
X1466828Y375675*
X1466814Y375722*
X1466799Y375769*
X1466784Y375817*
X1466770Y375864*
X1466755Y375911*
X1466739Y375958*
X1466725Y376005*
X1466725D02*
X1466709Y376052D01*
X1466693Y376098*
X1466693D02*
X1466678Y376145D01*
X1466662Y376192*
X1466647Y376239*
X1466631Y376286*
X1466615Y376332*
X1466599Y376379*
X1466582Y376426*
X1466566Y376473*
X1466549Y376519*
X1466533Y376565*
X1466516Y376612*
X1466499Y376658*
X1466482Y376705*
X1466465Y376751*
X1466448Y376797*
X1466430Y376844*
X1466413Y376890*
X1466396Y376936*
X1466378Y376982*
X1466360Y377028*
X1466342Y377074*
X1466324Y377120*
X1466306Y377166*
X1466287Y377212*
X1466269Y377258*
X1466250Y377304*
X1466232Y377349*
X1466213Y377395*
X1466194Y377441*
X1466175Y377486*
X1466156Y377532*
X1466136Y377577*
X1466117Y377623*
X1466097Y377668*
X1466078Y377713*
X1466058Y377758*
X1466038Y377803*
X1466018Y377848*
X1466018D02*
X1465998Y377893D01*
X1465977Y377939*
X1465957Y377984*
X1465936Y378028*
X1465915Y378073*
X1465894Y378118*
X1465873Y378163*
X1465852Y378207*
X1465831Y378252*
X1465809Y378296*
X1465788Y378341*
X1465766Y378385*
X1465744Y378429*
X1465722Y378474*
X1465700Y378518*
X1465678Y378562*
X1465655Y378606*
X1465633Y378650*
X1465610Y378694*
X1465587Y378737*
X1465564Y378781*
X1465541Y378825*
X1465518Y378868*
X1465495Y378912*
X1465471Y378955*
X1465447Y378998*
X1465447D02*
X1465423Y379042D01*
X1465399Y379085*
X1465375Y379128*
X1465351Y379171*
X1465326Y379214*
X1465302Y379257*
X1465277Y379300*
X1465252Y379342*
X1465227Y379385*
X1465202Y379428*
X1465177Y379470*
X1465151Y379512*
X1465126Y379554*
X1465100Y379597*
X1465074Y379639*
X1465048Y379681*
X1465022Y379723*
X1464996Y379764*
X1464969Y379806*
X1464943Y379848*
X1464916Y379889*
X1464889Y379930*
X1464862Y379972*
X1464834Y380013*
X1464807Y380054*
X1464779Y380095*
X1464752Y380136*
X1464724Y380177*
X1464696Y380217*
X1464667Y380258*
X1464639Y380298*
X1464639D02*
X1464611Y380339D01*
X1464582Y380379*
X1464553Y380419*
X1464525Y380460*
X1464525D02*
X1464495Y380499D01*
X1464466Y380539*
X1464437Y380579*
X1464407Y380618*
X1464377Y380658*
X1464348Y380697*
X1464317Y380736*
X1464287Y380776*
X1464257Y380815*
X1464226Y380853*
X1464196Y380892*
X1464165Y380931*
X1464134Y380969*
X1464103Y381008*
X1464072Y381046*
X1464040Y381084*
X1464009Y381122*
X1463977Y381160*
X1463945Y381198*
X1463913Y381235*
X1463881Y381273*
X1463849Y381310*
X1463816Y381347*
X1463783Y381384*
X1463750Y381421*
X1463717Y381458*
X1463684Y381495*
X1463651Y381531*
X1463618Y381568*
X1463584Y381604*
X1463550Y381640*
X1463517Y381676*
X1463482Y381712*
X1463448Y381747*
X1463414Y381783*
X1463380Y381819*
X1463345Y381854*
X1463310Y381889*
X1463275Y381924*
X1463240Y381958*
X1463205Y381993*
X1463169Y382028*
X1463134Y382062*
X1463099Y382096*
X1463063Y382130*
X1463026Y382164*
X1462991Y382198*
X1462954Y382232*
X1462918Y382265*
X1462881Y382298*
X1462845Y382331*
X1462808Y382364*
X1462771Y382397*
X1462734Y382430*
X1462697Y382462*
X1462659Y382495*
X1462622Y382526*
X1462584Y382559*
X1462546Y382590*
X1462508Y382622*
X1462471Y382654*
X1462432Y382685*
X1462394Y382716*
X1462356Y382747*
X1462317Y382778*
X1462278Y382809*
X1462239Y382839*
X1462200Y382870*
X1462162Y382900*
X1462122Y382930*
X1462083Y382960*
X1462043Y382990*
X1462004Y383020*
X1461964Y383049*
X1461925Y383078*
X1461925D02*
X1461885Y383108D01*
X1461845Y383137*
X1461804Y383165*
X1461764Y383194*
X1461724Y383223*
X1461684Y383251*
X1461643Y383279*
X1461602Y383307*
X1461562Y383335*
X1461521Y383363*
X1461479Y383390*
X1461438Y383417*
X1461397Y383445*
X1461356Y383472*
X1461314Y383499*
X1461273Y383525*
X1461231Y383552*
X1461189Y383578*
X1461147Y383605*
X1461106Y383631*
X1461063Y383657*
X1461021Y383682*
X1460979Y383708*
X1460937Y383734*
X1460894Y383759*
X1460852Y383784*
X1460809Y383809*
X1460766Y383834*
X1460723Y383858*
X1460680Y383883*
X1460637Y383907*
X1460594Y383931*
X1460551Y383955*
X1460508Y383979*
X1460465Y384002*
X1460421Y384026*
X1460378Y384050*
X1460334Y384073*
X1460290Y384096*
X1460247Y384119*
X1460203Y384141*
X1460159Y384164*
X1460115Y384186*
X1460071Y384209*
X1460026Y384231*
X1459982Y384253*
X1459938Y384274*
X1459893Y384296*
X1459849Y384317*
X1459804Y384339*
X1459760Y384360*
X1459715Y384381*
X1459671Y384402*
X1459626Y384423*
X1459581Y384443*
X1459536Y384463*
X1459491Y384484*
X1459446Y384504*
X1459400Y384524*
X1459355Y384544*
X1459310Y384563*
X1459265Y384583*
X1459219Y384602*
X1459174Y384621*
X1459128Y384640*
X1459082Y384659*
X1459037Y384678*
X1458991Y384697*
X1458945Y384715*
X1458899Y384733*
X1458854Y384751*
X1458808Y384769*
X1458762Y384787*
X1458715Y384805*
X1458669Y384823*
X1458623Y384840*
X1458577Y384858*
X1458530Y384874*
X1458484Y384891*
X1458438Y384908*
X1458391Y384925*
X1458345Y384942*
X1458298Y384958*
X1458252Y384974*
X1458205Y384991*
X1458158Y385007*
X1458112Y385023*
X1458065Y385038*
X1458018Y385054*
X1457971Y385069*
X1457924Y385085*
X1457877Y385100*
X1457830Y385115*
X1457783Y385130*
X1457736Y385145*
X1457689Y385160*
X1457642Y385174*
X1457595Y385188*
X1457547Y385203*
X1457500Y385217*
X1457452Y385231*
X1457405Y385245*
X1457358Y385259*
X1457310Y385272*
X1457263Y385286*
X1457215Y385299*
X1457168Y385312*
X1457120Y385325*
X1457073Y385338*
X1457025Y385351*
X1456977Y385364*
X1456929Y385376*
X1456882Y385389*
X1456834Y385402*
X1456786Y385414*
X1456738Y385426*
X1456690Y385438*
X1456642Y385450*
X1456594Y385461*
X1456547Y385473*
X1456499Y385485*
X1456450Y385496*
X1456402Y385507*
X1456354Y385518*
X1456306Y385529*
X1456258Y385540*
X1456210Y385551*
X1456162Y385561*
X1456113Y385572*
X1456065Y385582*
X1456017Y385593*
X1455969Y385603*
X1455920Y385613*
X1455872Y385623*
X1455823Y385633*
X1455775Y385643*
X1455726Y385652*
X1455678Y385661*
X1455630Y385671*
X1455581Y385680*
X1455532Y385689*
X1455484Y385698*
X1455484D02*
X1455436Y385708D01*
X1455387Y385716*
X1455338Y385725*
X1455290Y385734*
X1455241Y385742*
X1455192Y385750*
X1455144Y385759*
X1455095Y385767*
X1455046Y385775*
X1454998Y385783*
X1454949Y385791*
X1454900Y385798*
X1454900D02*
X1454851Y385806D01*
X1454802Y385814*
X1454754Y385821*
X1454705Y385829*
X1454656Y385836*
X1454607Y385843*
X1454558Y385850*
X1454510Y385857*
X1454461Y385864*
X1454412Y385871*
X1454363Y385878*
X1454314Y385884*
X1454265Y385891*
X1454216Y385897*
X1454167Y385903*
X1454118Y385910*
X1454069Y385916*
X1454020Y385922*
X1453971Y385928*
X1453922Y385934*
X1453873Y385939*
X1453824Y385945*
X1453775Y385950*
X1453726Y385956*
X1453676Y385961*
X1453628Y385967*
X1453578Y385972*
X1453529Y385977*
X1453480Y385982*
X1453431Y385987*
X1453382Y385992*
X1453333Y385997*
X1453284Y386002*
X1453235Y386006*
X1453186Y386011*
X1453136Y386015*
X1453087Y386020*
X1453038Y386024*
X1452989Y386028*
X1452939Y386033*
X1452890Y386037*
X1452841Y386041*
X1452792Y386045*
X1452743Y386048*
X1452693Y386052*
X1452644Y386056*
X1452595Y386059*
X1452546Y386063*
X1452497Y386066*
X1452447Y386069*
X1452398Y386073*
X1452349Y386076*
X1452299Y386079*
X1452250Y386082*
X1452201Y386085*
X1452152Y386088*
X1452102Y386091*
X1452053Y386093*
X1452004Y386096*
X1451954Y386098*
X1451954D02*
X1451905Y386101D01*
X1451856Y386103*
X1451806Y386106*
X1451757Y386108*
X1451708Y386110*
X1451659Y386112*
X1451609Y386114*
X1451560Y386117*
X1451511Y386119*
X1451462Y386120*
X1451412Y386122*
X1451363Y386124*
X1451313Y386126*
X1451264Y386127*
X1451215Y386129*
X1451165Y386130*
X1451116Y386132*
X1451067Y386134*
X1451017Y386135*
X1450968Y386136*
X1450919Y386137*
X1450869Y386139*
X1450820Y386140*
X1450771Y386141*
X1450721Y386143*
X1450672*
X1450623Y386145*
X1450573Y386146*
X1450524Y386147*
X1450475Y386148*
X1450475D02*
X1450425D01*
X1450425D02*
X1450376Y386149D01*
X1450326Y386150*
X1450277Y386151*
X1450228Y386152*
X1450178*
X1450129Y386153*
X1450080Y386154*
X1450030Y386155*
X1449981Y386156*
X1449932*
X1449882Y386157*
X1449833*
X1449784Y386158*
X1449734*
X1449685Y386159*
X1449636*
X1449586Y386160*
X1449537*
X1449487Y386161*
X1449438*
X1449389*
X1449339Y386162*
X1449290*
X1449241*
X1449191Y386163*
X1449142*
X1449093*
X1449043*
X1448994Y386164*
X1448945*
X1448895*
X1448846Y386165*
X1448796*
X1448747*
X1448698*
X1448648*
X1448599*
X1448550Y386166*
X1448500*
X1448451*
X1448401*
X1448352Y386167*
X1448303*
X1448253*
X1467910Y367532D02*
X1468442Y342913D01*
X1383621D02*
X1378356Y337649D01*
Y326772*
X1310415D02*
X1378356D01*
X1468442Y342913D02*
X1383621D01*
X1235611Y242887D02*
Y320929D01*
X858071Y575906D02*
X1059709D01*
X1065615Y570000D02*
X1059709Y575906D01*
Y446850D02*
X1065615Y452756D01*
Y570000*
X858071Y575906D02*
X1059709D01*
X1065615Y570000D02*
X1059709Y575906D01*
Y446850D02*
X1065615Y452756D01*
Y570000*
X1059709Y446850D02*
X866732D01*
X838386D02*
Y470472D01*
X866732Y446850D02*
X838386D01*
Y552283D02*
Y470472D01*
X858071Y575906D02*
X838386D01*
Y551181*
X564961Y520860D02*
G03X562992Y518891I-0J-1969D01*
G01X564961Y520860D02*
X616142D01*
X618110Y518891D02*
G03X616142Y520860I-1968J0D01*
G01X618110Y518891D02*
Y503143D01*
X616142Y501174D02*
G03X618110Y503143I-0J1969D01*
G01X616142Y501174D02*
X564961D01*
X562992Y503143D02*
G03X564961Y501174I1969J-0D01*
G01X562992Y503143D02*
Y518891D01*
G54D102*
X578051Y514836D03*
X603051D03*
G54D103*
X517913Y316929D03*
Y319291D03*
Y314567D03*
X515551Y319291D03*
Y316929D03*
Y314567D03*
X520276D03*
Y319291D03*
Y316929D03*
G54D104*
X530315Y348425D03*
X536614D03*
X1098425Y233465D03*
Y227165D03*
X1076772Y233465D03*
Y227165D03*
X987008Y226378D03*
X993307D03*
X1006693D03*
X1012992D03*
X1022835Y330709D03*
X1016535D03*
X530315Y342520D03*
X536614D03*
X996063Y313780D03*
Y320079D03*
X988189Y313780D03*
Y320079D03*
X959843Y322835D03*
X953543D03*
X951969Y305118D03*
X945669D03*
X953937Y261811D03*
X947638D03*
X1000000Y261024D03*
Y254724D03*
X1005906Y261024D03*
Y254724D03*
X920079Y271654D03*
X926378D03*
X966535Y331496D03*
Y337795D03*
X960630Y331496D03*
Y337795D03*
X613386Y279528D03*
X607087D03*
X953937Y267717D03*
X947638D03*
X1029528Y201575D03*
Y207874D03*
X1023622Y201575D03*
Y207874D03*
X1049213Y190157D03*
Y183858D03*
X1055118Y190157D03*
Y183858D03*
X917323Y233465D03*
Y227165D03*
X908661Y271654D03*
X902362D03*
X613386Y285433D03*
X607087D03*
X908661Y253937D03*
X902362D03*
X613386Y291339D03*
X607087D03*
X546063Y259843D03*
X552362D03*
X1261811Y290157D03*
Y296457D03*
X1017717Y241339D03*
Y235039D03*
X546063Y265748D03*
X552362D03*
X1257087Y305118D03*
X1250787D03*
X1257087Y261811D03*
X1250787D03*
X923228Y233465D03*
Y227165D03*
X908661Y259843D03*
X902362D03*
X908661Y265748D03*
X902362D03*
X521654Y286220D03*
Y292520D03*
X1011811Y235039D03*
Y241339D03*
X993307Y232283D03*
X987008D03*
X993307Y238189D03*
X987008D03*
X1016535Y340551D03*
X1022835D03*
X1016535Y346457D03*
X1022835D03*
X1011811Y306299D03*
Y300000D03*
X515748Y286220D03*
Y292520D03*
X919291Y258661D03*
Y264961D03*
X935039Y233465D03*
Y227165D03*
X929134Y233465D03*
Y227165D03*
X613386Y297244D03*
X607087D03*
X595669Y314961D03*
X589370D03*
Y320866D03*
X595669D03*
X543307Y300000D03*
Y306299D03*
X1005906Y241339D03*
Y235039D03*
X1255906Y290157D03*
Y296457D03*
Y276772D03*
Y270472D03*
X1092520Y233465D03*
Y227165D03*
X509843Y292520D03*
Y286220D03*
G54D108*
X1061024Y183858D03*
Y190157D03*
X1267717Y296457D03*
Y290157D03*
G54D113*
X1000000Y196850D03*
X952756D03*
X1389764D03*
X1342520D03*
G54D114*
X626378Y285425D03*
Y283456D03*
Y281488D03*
Y279519D03*
Y277551D03*
Y275582D03*
Y273614D03*
Y271645D03*
Y269677D03*
Y267708D03*
X562992Y292323D03*
Y290354D03*
Y288386D03*
Y286417D03*
Y284449D03*
Y282480D03*
Y280512D03*
Y278543D03*
Y276575D03*
Y274606D03*
Y272638D03*
Y270669D03*
Y268701D03*
Y266732D03*
Y264764D03*
Y262795D03*
X889764Y264764D03*
Y266732D03*
Y268701D03*
Y270669D03*
Y272638D03*
Y274606D03*
Y276575D03*
Y278543D03*
Y280512D03*
Y282480D03*
Y284449D03*
Y286417D03*
Y288386D03*
Y290354D03*
Y292323D03*
Y294291D03*
Y296260D03*
Y298228D03*
Y300197D03*
Y302165D03*
X856299Y495079D03*
Y497047D03*
Y499016D03*
Y500984D03*
Y502953D03*
Y504921D03*
Y506890D03*
Y508858D03*
Y510827D03*
Y512795D03*
Y514764D03*
Y516732D03*
Y518701D03*
Y520669D03*
Y522638D03*
Y524606D03*
Y526575D03*
Y528543D03*
Y530512D03*
Y532480D03*
G54D115*
X629921Y291035D03*
Y262098D03*
X566535Y297933D03*
Y257185D03*
X886220Y259154D03*
Y307776D03*
X852756Y489469D03*
Y538091D03*
G54D120*
X605118Y312992D03*
Y320866D03*
X615354Y316929D03*
G54D122*
X1030906Y187205D03*
Y190945D03*
Y194685D03*
X1039961D03*
Y187205D03*
G54D125*
X948819Y186220D03*
X964567D03*
X972441D03*
X980315D03*
X988189D03*
X996063D03*
X1003937D03*
G54D126*
X948819Y207480D03*
X956693Y186220D03*
Y207480D03*
X964567D03*
X972441D03*
X980315D03*
X988189D03*
X996063D03*
X1003937D03*
G54D131*
X1393386Y226693D03*
X1397953D03*
X1393386Y222126D03*
X1397953D03*
X1395669Y224409D03*
G54D133*
X517913Y316929D03*
X1333682Y351969D03*
G54D134*
X1353682D03*
X1373682D03*
X1007532Y511378D03*
X1017374D03*
X1027203D03*
X1056731D03*
X1037045D03*
X1046888D03*
X997689D03*
X1003549Y466102D03*
X1050793D03*
X1003585Y556654D03*
X1050829D03*
X1027171D03*
Y466102D03*
G54D135*
X897638Y334646D03*
Y226378D03*
X1055296Y202756D03*
X1023622Y366142D03*
X480315Y272629D03*
X590551Y355307D03*
Y196850D03*
X724803Y276567D03*
G54D136*
X1413386Y196850D03*
X1445060Y360236D03*
G54D139*
X1251280Y294044D03*
Y271288D03*
G54D148*
X490354Y331890D03*
Y301969D03*
G54D149*
X495079Y331890D03*
X499409D03*
X503740D03*
X508071D03*
X512402D03*
X516732D03*
X521063D03*
X525394D03*
X529724D03*
Y301969D03*
X525394D03*
X521063D03*
X516732D03*
X512402D03*
X508071D03*
X503740D03*
X499409D03*
X495079D03*
G54D150*
X534843Y331201D03*
Y302657D03*
G54D151*
X534646Y327953D03*
Y324803D03*
Y321654D03*
Y318504D03*
Y315354D03*
Y312205D03*
Y309055D03*
Y305906D03*
G54D152*
X493504Y315551D03*
Y318307D03*
G54D159*
X1287323Y336614D03*
X1287362Y228346D03*
G54D163*
X858071Y566457D03*
Y458268D03*
G54D166*
X588091Y504403D03*
X593012D03*
G54D167*
X1046188Y475945D03*
X1009180Y546811D03*
G54D168*
X997689Y499469D03*
Y503996D03*
X1007532Y499469D03*
Y503996D03*
X1017374Y499469D03*
Y503996D03*
X1027203Y499469D03*
Y503996D03*
X1037045Y499469D03*
Y503996D03*
X1046888Y499469D03*
Y503996D03*
X1056731Y499469D03*
Y503996D03*
G74*
X0Y0D02*
M02*
