%
T1C.00787F0S0
X139339Y022213
X139795Y022213
X139567Y022441
X139795Y022669
X139339Y022669
T2C.01181F095S3
X048031Y022047
X050394Y022047
X048031Y024409
X050394Y024409
X046063Y026772
X050394Y026772
X050394Y029134
X049488Y029606
X050394Y031496
X049488Y033622
X049921Y033622
X050354Y033622
X05Y034646
X052756Y035827
X051791Y031929
X052028Y031929
X051555Y031929
X051791Y031693
X051555Y031693
X052028Y031693
X052756Y031496
X052028Y031457
X051791Y031457
X051555Y031457
X051181Y029606
X051575Y029606
X05315Y029528
X051575Y028268
X052165Y028268
X052756Y026772
X052756Y024409
X052756Y022047
X052756Y019685
X055118Y019685
X055118Y022047
X055118Y024409
X055276Y027165
X055748Y027165
X054803Y027638
X055276Y027638
X055748Y027638
X053937Y028346
X055354Y029134
X055748Y029134
X053937Y03
X055276Y031181
X053937Y031181
X053937Y031575
X055276Y031575
X055118Y033858
X055118Y035827
X056693Y051712
X059055Y051712
X058819Y050866
X059291Y050866
X057874Y050531
X056693Y050531
X060236Y050531
X05748Y03622
X060236Y03622
X059843Y033858
X05748Y033858
X058937Y03252
X060512Y03252
X05748Y031496
X056102Y029843
X060315Y029134
X059843Y029134
X05748Y029134
X060315Y028543
X056811Y028268
X060315Y027953
X059843Y024409
X05748Y024409
X059843Y022047
X05748Y022047
X05748Y019685
X062205Y019685
X064567Y019685
X062205Y022047
X064567Y022047
X062205Y024409
X064567Y024409
X062126Y025984
X061654Y026693
X061181Y026693
X062126Y026693
X064567Y026772
X061654Y027165
X062126Y027165
X064567Y029134
X062205Y031496
X064567Y031496
X062205Y033858
X064567Y033858
X062205Y03622
X064567Y03622
X061417Y050531
X061417Y051712
X066929Y035827
X066929Y033858
X070866Y033858
X069094Y033858
X066929Y031496
X069094Y031496
X069094Y029134
X066929Y029134
X069094Y026772
X066929Y026772
X069094Y024409
X066929Y024409
X069094Y022047
X066929Y022047
X066929Y019685
X071654Y024409
X071654Y026772
X073622Y026772
X071654Y029134
X073622Y029134
X071654Y031496
X084449Y056299
X084449Y054724
X084449Y052362
X085157Y052283
X084921Y050787
X084449Y05
X085276Y048031
X084449Y047638
X084646Y030315
X084646Y027953
X085039Y025591
X087008Y023228
X087008Y025591
X087756Y025906
X087008Y027953
X088504Y030118
X087008Y030315
X087756Y030787
X087008Y032677
X087402Y035039
X087205Y045276
X088465Y047441
X086417Y047638
X086102Y048031
X088031Y050866
X086102Y051378
X088465Y05252
X086102Y053228
X086102Y053819
X088031Y054134
X086417Y054724
X088465Y056457
X087205Y057087
X089567Y057087
X089213Y055157
X090354Y055157
X089961Y054331
X089213Y053661
X089685Y053661
X090157Y053661
X08937Y050787
X089213Y050197
X090354Y050197
X089213Y049567
X089764Y046654
X089567Y045276
X08937Y035039
X089528Y028346
X089921Y027087
X08937Y025591
X089921Y025394
X08937Y02126
X091732Y020866
X092323Y022283
X093504Y022283
X092913Y022283
X091299Y022717
X091299Y023346
X092008Y025433
X093465Y026614
X09248Y026614
X092638Y028071
X091063Y029134
X091732Y030591
X091732Y032677
X091732Y035039
X091929Y045276
X093189Y045472
X093504Y047441
X091063Y047441
X091929Y047441
X093504Y048543
X091614Y049567
X091614Y050197
X092992Y050197
X091614Y050866
X091063Y05252
X092835Y05252
X091457Y053661
X091654Y054134
X093386Y054409
X091063Y056457
X091929Y057087
X094291Y057087
X094764Y056457
X095394Y055157
X095866Y054331
X09374Y054134
X095551Y054134
X094764Y05252
X094291Y052362
X09437Y050197
X095512Y050197
X095354Y04878
X095866Y047205
X095472Y047205
X09437Y04689
X09437Y045866
X094291Y045276
X094094Y037402
X094094Y035039
X095591Y034252
X095591Y03378
X094094Y032677
X094921Y032323
X094173Y03063
X095709Y030591
X093701Y030591
X094409Y029213
X093622Y028661
X094409Y028661
X094016Y028661
X095709Y027441
X095709Y026772
X095709Y026378
X094882Y025827
X095276Y024803
X09378Y024724
X094094Y022283
X095669Y021417
X094094Y020866
X095669Y020079
X095669Y019331
X094882Y019331
X094094Y018504
X096457Y019331
X097244Y019331
X097244Y021417
X096457Y021417
X096457Y02189
X097244Y02189
X096457Y022362
X096457Y023228
X096457Y024488
X096457Y024961
X097087Y026772
X098268Y027402
X096181Y027441
X097638Y027953
X096457Y027953
X096614Y029213
X097087Y029685
X096614Y029685
X097638Y029921
X097953Y03063
X09748Y03063
X09748Y031102
X097953Y031102
X097047Y032323
X096457Y032323
X096457Y035039
X098031Y035591
X096457Y037402
X096654Y045276
X09626Y046181
X096654Y046181
X096654Y046654
X09626Y047205
X09815Y047205
X097756Y047205
X097756Y047677
X09815Y047677
X097913Y049567
X096378Y049567
X097913Y050197
X096614Y050197
X097047Y05252
X096378Y053661
X097756Y053661
X097913Y054134
X096732Y055157
X097362Y056457
X096654Y057087
X096063Y057087
X099016Y057087
X099409Y054724
X099764Y052677
X100748Y052677
X099213Y05252
X099882Y049567
X099488Y049567
X099882Y048622
X099488Y048622
X100669Y048622
X100276Y048622
X099016Y045276
X098819Y037402
X09874Y035591
X099685Y034055
X100197Y032677
X098819Y032323
X099606Y032323
X100748Y031024
X099606Y031024
X098819Y031024
X100748Y03063
X1Y030315
X098819Y030315
X100748Y03
X100669Y027953
X098819Y027953
X1Y027402
X098819Y026772
X100591Y026417
X1Y026417
X100591Y025118
X1Y024646
X100591Y024646
X099685Y023819
X099685Y023228
X099685Y022638
X098819Y020079
X101575Y018504
X102205Y019134
X101181Y020079
X101654Y020787
X10185Y02126
X101181Y021654
X102244Y024173
X103543Y025394
X102677Y025433
X103543Y026378
X102283Y027087
X101811Y027087
X102756Y027087
X103504Y027087
X102283Y028583
X102756Y028583
X103228Y028583
X101811Y028583
X102283Y029134
X101811Y029134
X103543Y030315
X103543Y032677
X10126Y033071
X102638Y033071
X10126Y034055
X102638Y034055
X10126Y034646
X102638Y034646
X103543Y035039
X101181Y037402
X101378Y045276
X101063Y048622
X101732Y052677
X102717Y052677
X101575Y05374
X101378Y057087
X10374Y057087
X10374Y054724
X10374Y05374
X103701Y052677
X105669Y052677
X104685Y052677
X10374Y048228
X10374Y045276
X105512Y037402
X103819Y036024
X104843Y035315
X105906Y035039
X104646Y034646
X104606Y034055
X104606Y033071
X105906Y032677
X105906Y030315
X105906Y026378
X104094Y02626
X104094Y025394
X105906Y025394
X105709Y023228
X106457Y018386
X107677Y02185
X107677Y022362
X108346Y023701
X107677Y023701
X107087Y024173
X107677Y024173
X107087Y025472
X108268Y025591
X108465Y027874
X107677Y028346
X107362Y028819
X10689Y028819
X108268Y032677
X108268Y035039
X106811Y036024
X106102Y045276
X106102Y052362
X106102Y054724
X106102Y057087
X11063Y035039
X11063Y032677
X109882Y030394
X108937Y029921
X109409Y029921
X109882Y029921
X108937Y028819
X109882Y028819
X109409Y028819
X109409Y027874
X109882Y027874
X108937Y027874
X109882Y026299
X11063Y025591
X109843Y024173
X108819Y023701
X109252Y023701
X11063Y023228
X109843Y022362
X109252Y022362
X108661Y02126
X111575Y02185
X112992Y023228
X112992Y025591
X114173Y025591
X112992Y027953
X114567Y027953
X112992Y030315
X114173Y030315
X112992Y032677
X124803Y033661
X124016Y032283
X124724Y030512
X124016Y029331
X125157Y02874
X124016Y027559
X124724Y026181
X124016Y025197
X124606Y022835
X126535Y022638
X126535Y022992
X127402Y024803
X128543Y025669
X126063Y026181
X126063Y027008
X126614Y027677
X126063Y027677
X127953Y027953
X128543Y028346
X126063Y02874
X128543Y02874
X128543Y029134
X128543Y029921
X126063Y029961
X126063Y030512
X128543Y032087
X126378Y032283
X126378Y034646
X132087Y038189
X131299Y037008
X131102Y035039
X131772Y034843
X131772Y034055
X131772Y033543
X133465Y033071
X133071Y022835
X129724Y022047
X131102Y020472
X133465Y020079
X133465Y01811
X132087Y01811
X135433Y019291
X134646Y019291
X133858Y019291
X13622Y019291
X135827Y020079
X138189Y020079
X134646Y021378
X13622Y021378
X13689Y021378
X137795Y021378
X133858Y021378
X135669Y021811
X13622Y021811
X13748Y022126
X137165Y022402
X136417Y022402
X136417Y022756
X133858Y022756
X135827Y033071
X138189Y035827
X135827Y035827
X138189Y038189
X134449Y038189
X140551Y038189
X142913Y038189
X140551Y035827
X142913Y035827
X140512Y023071
X138622Y022756
X140512Y022598
X138622Y022402
X140512Y022008
X138583Y021378
X140512Y02126
X140551Y020472
X14185Y018307
X140551Y01811
X145276Y01811
X14626Y018819
X145472Y020472
X14626Y021339
X146457Y035827
X145276Y038189
T3C.01969F095S3
X054173Y026575
X050984Y028189
X053031Y033819
X053661Y033819
X061772Y029134
X061772Y028543
X061772Y027953
X086457Y048543
X086457Y049016
X086457Y049646
X084921Y049646
X086457Y050118
X084921Y050197
X09563Y033071
X091339Y027165
X091339Y026575
X091339Y024921
X090866Y024921
X098031Y019331
X100906Y018622
X102205Y018622
X099449Y019331
X098819Y019331
X102205Y019685
X100394Y021417
X099016Y02189
X100669Y023071
X105906Y04937
X105906Y047913
X107087Y026575
X108858Y026575
X104528Y019016
X13252Y019331
X131969Y019331
X130118Y031181
X127441Y032559
X137165Y036417
X142717Y021457
X139882Y020748
X137008Y019331
X137795Y019331
X143701Y019055
X143701Y019606
X143701Y02063
T4C.02559F197S55
X125128Y027129
X125128Y029404
T5C.04724F139S55
X095276Y019685
X1Y019685
X134252Y019685
X138976Y019685
T6C.04724F139S55
X133368Y035197
X135368Y035197
X137368Y035197
T7C.06693F089S55
X100918Y054681
X104619Y047594
T8C.07874F081S55
X100355Y04661
X099769Y051138
X100753Y051138
X100358Y055665
X102717Y055665
X105083Y055665
X101737Y051138
X105673Y051138
X10272Y051138
X103705Y051138
X104689Y051138
X102717Y04661
X105079Y04661
T9C.08661F074S55
X059055Y019685
X048031Y027263
X059055Y035531
X089764Y033465
X07248Y027657
X089764Y022638
X10553Y020276
X102362Y036614
T10C.1378F035S794
X085807Y045827
X085807Y056646
T11C.15748F035S9
X141339Y019685
X144506Y036024
T12C.19685F035S1033
X128736Y022835
X128732Y033661
M30
